 <svg width="136" height="29" viewBox="0 0 136 29" fill="none" xmlns="http://www.w3.org/2000/svg">
<path d="M0.925781 28V2.33594L2.78906 1.45703H13.9336V1.63281L12.5098 4.65625H4.44141V13.1289H13.9336V13.3047L12.5098 16.3281H4.44141V24.8008H16.8691V24.9766L15.4453 28H0.925781ZM61.8867 2.33594L65.2266 0.753906H65.4023V22.5508C65.4023 23.3594 66.1113 24.0449 67.5293 24.6074C68.5137 24.9941 69.5918 25.1875 70.7637 25.1875C71.9355 25.1875 73.0137 24.9941 73.998 24.6074C75.416 24.0449 76.125 23.3594 76.125 22.5508V2.33594L79.4648 0.753906H79.6406V22.5508C79.6406 23.3594 80.3496 24.0449 81.7676 24.6074C82.752 24.9941 83.8301 25.1875 85.002 25.1875C86.1738 25.1875 87.252 24.9941 88.2363 24.6074C89.6543 24.0449 90.3633 23.3594 90.3633 22.5508V2.33594L93.7031 0.753906H93.8789V22.5508C93.8789 24.6953 92.5488 26.3184 89.8887 27.4199C88.4004 28.041 86.7715 28.3516 85.002 28.3516C83.2207 28.3516 81.5918 28.041 80.1152 27.4199C79.2246 27.0449 78.4805 26.6172 77.8828 26.1367C77.2852 26.6172 76.541 27.0449 75.6504 27.4199C74.1738 28.041 72.5449 28.3516 70.7637 28.3516C68.9941 28.3516 67.3652 28.041 65.877 27.4199C63.2168 26.3184 61.8867 24.6953 61.8867 22.5508V2.33594Z" fill="#65AEBC"/>
<path d="M20.4023 24.0449C20.4023 24.0449 20.4023 20.2363 20.4023 12.6191C20.4023 11.0488 21.498 9.8418 23.6895 8.99805C24.873 8.54102 26.209 8.3125 27.6973 8.3125C29.0918 8.3125 30.3516 8.51172 31.4766 8.91016V2.33594L34.8164 0.753906H34.9922V24.0449C34.9922 25.6152 33.8965 26.8223 31.7051 27.666C30.5215 28.123 29.1855 28.3516 27.6973 28.3516C26.209 28.3516 24.873 28.123 23.6895 27.666C21.498 26.7988 20.4023 25.5918 20.4023 24.0449ZM23.918 23.4297C23.918 24.0156 24.2812 24.4551 25.0078 24.748C25.7461 25.041 26.6426 25.1875 27.6973 25.1875C28.752 25.1875 29.6426 25.041 30.3691 24.748C31.1074 24.4551 31.4766 24.0156 31.4766 23.4297V13.2344C31.4766 12.6484 31.1074 12.209 30.3691 11.916C29.6426 11.623 28.752 11.4766 27.6973 11.4766C26.6426 11.4766 25.7461 11.623 25.0078 11.916C24.2812 12.209 23.918 12.6484 23.918 13.2344V23.4297ZM41.1445 9.54297L44.4844 7.96094H44.6602V23.4297C44.6602 24.0156 45.0234 24.4551 45.75 24.748C46.4883 25.041 47.3848 25.1875 48.4395 25.1875C49.4941 25.1875 50.3848 25.041 51.1113 24.748C51.8496 24.4551 52.2188 24.0156 52.2188 23.4297V9.54297L55.5586 7.96094H55.7344V24.0449C55.7344 25.6152 54.6387 26.8223 52.4473 27.666C51.2637 28.123 49.9277 28.3516 48.4395 28.3516C46.9512 28.3516 45.6152 28.123 44.4316 27.666C42.2402 26.8223 41.1445 25.6152 41.1445 24.0449V9.54297ZM114.621 20.2129V24.0449C114.621 25.5918 113.525 26.7988 111.334 27.666C110.15 28.123 108.814 28.3516 107.326 28.3516C105.838 28.3516 104.502 28.123 103.318 27.666C101.127 26.7988 100.031 25.5918 100.031 24.0449V12.6191C100.031 11.0723 101.127 9.86523 103.318 8.99805C104.502 8.54102 105.838 8.3125 107.326 8.3125C108.814 8.3125 110.15 8.54102 111.334 8.99805C113.525 9.86523 114.621 11.0723 114.621 12.6191V14.8691L103.547 23.4297C103.547 24.0156 103.91 24.4551 104.637 24.748C105.375 25.041 106.271 25.1875 107.326 25.1875C108.381 25.1875 109.271 25.041 109.998 24.748C110.736 24.4551 111.105 24.0156 111.105 23.4297V21.7949L114.445 20.2129H114.621ZM103.547 19.7207L111.105 13.6387V13.2344C111.105 12.6484 110.736 12.209 109.998 11.916C109.271 11.623 108.381 11.4766 107.326 11.4766C106.271 11.4766 105.375 11.623 104.637 11.916C103.91 12.209 103.547 12.6484 103.547 13.2344V19.7207ZM120.773 24.0449V2.33594L124.113 0.753906H124.289V8.91016C125.414 8.51172 126.674 8.3125 128.068 8.3125C129.557 8.3125 130.893 8.54102 132.076 8.99805C134.268 9.86523 135.363 11.0723 135.363 12.6191V24.0449C135.363 25.6152 134.268 26.8223 132.076 27.666C130.893 28.123 129.557 28.3516 128.068 28.3516C126.58 28.3516 125.244 28.123 124.061 27.666C121.869 26.7988 120.773 25.5918 120.773 24.0449ZM124.289 13.2344V23.4297C124.289 24.0156 124.652 24.4551 125.379 24.748C126.117 25.041 127.014 25.1875 128.068 25.1875C129.123 25.1875 130.014 25.041 130.74 24.748C131.479 24.4551 131.848 24.0156 131.848 23.4297V13.2344C131.848 12.6484 131.479 12.209 130.74 11.916C130.014 11.623 129.123 11.4766 128.068 11.4766C127.014 11.4766 126.117 11.623 125.379 11.916C124.652 12.209 124.289 12.6484 124.289 13.2344Z" fill="#BEDDEF"/>
</svg>
