<svg width="50" height="28" viewBox="0 0 50 28" fill="none" xmlns="http://www.w3.org/2000/svg">
<g clip-path="url(#clip0_10_444)">
<path d="M3.10156 27V1.33594L4.96484 0.457031H16.1094V0.632812L14.6855 3.65625H6.61719V12.1289H16.1094V12.3047L14.6855 15.3281H6.61719V23.8008H19.0449V23.9766L17.6211 27H3.10156ZM21.6992 8.54297L25.0391 6.96094H25.2148V22.4297C25.2148 23.0156 25.5781 23.4551 26.3047 23.748C27.043 24.041 27.9395 24.1875 28.9941 24.1875C30.0488 24.1875 30.9395 24.041 31.666 23.748C32.4043 23.4551 32.7734 23.0156 32.7734 22.4297V8.54297L36.1133 6.96094H36.2891V22.4297C36.2891 23.0156 36.6523 23.4551 37.3789 23.748C38.1172 24.041 39.0137 24.1875 40.0684 24.1875C41.123 24.1875 42.0137 24.041 42.7402 23.748C43.4785 23.4551 43.8477 23.0156 43.8477 22.4297V8.54297L47.1875 6.96094H47.3633V23.0449C47.3633 24.6152 46.2676 25.8223 44.0762 26.666C42.8926 27.123 41.5566 27.3516 40.0684 27.3516C38.6035 27.3516 37.2676 27.123 36.0605 26.666C35.4746 26.4434 34.9648 26.1914 34.5312 25.9102C34.0977 26.1914 33.5879 26.4434 33.002 26.666C31.7949 27.123 30.459 27.3516 28.9941 27.3516C27.5059 27.3516 26.1699 27.123 24.9863 26.666C22.7949 25.8223 21.6992 24.6152 21.6992 23.0449V8.54297Z" fill="#65AEBC"/>
</g>
<defs>
<clipPath id="clip0_10_444">
<rect width="50" height="28" fill="white"/>
</clipPath>
</defs>
</svg>
