<?xml version="1.0" standalone="no"?>
<!DOCTYPE svg PUBLIC "-//W3C//DTD SVG 20010904//EN"
 "http://www.w3.org/TR/2001/REC-SVG-20010904/DTD/svg10.dtd">
<svg version="1.0" xmlns="http://www.w3.org/2000/svg"
 width="1151.000000pt" height="768.000000pt" viewBox="0 0 1151.000000 768.000000"
 preserveAspectRatio="xMidYMid meet">

<g transform="translate(0.000000,768.000000) scale(0.100000,-0.100000)"
fill="#000000" stroke="none">
<path d="M656 7653 c3 -29 8 -101 50 -705 23 -346 24 -369 8 -400 -22 -44 -52
-71 -70 -64 -19 7 -44 -3 -44 -18 0 -15 -140 -50 -152 -38 -5 5 -13 36 -18 68
-9 66 -37 180 -50 205 -8 14 -17 14 -87 2 -108 -18 -265 -43 -280 -43 -10 0
-13 -87 -13 -401 0 -377 1 -400 18 -395 40 12 354 56 362 51 5 -3 3 -21 -4
-42 l-13 -38 -179 -27 c-98 -15 -180 -27 -181 -27 -2 -1 -3 -1238 -3 -2751 l0
-2750 27 -6 c16 -4 42 -17 60 -30 24 -19 32 -21 35 -10 2 12 10 12 43 -4 29
-13 42 -15 47 -7 6 9 12 9 28 -1 27 -16 55 -15 70 3 10 12 16 13 26 4 11 -9
18 -8 28 0 21 17 51 -31 51 -80 0 -21 3 -36 6 -33 9 5 19 -35 18 -71 -1 -23
-3 -25 -6 -7 -5 25 -38 48 -48 32 -3 -5 -3 -14 0 -20 10 -17 -14 -11 -55 12
-21 13 -41 31 -44 42 -3 13 -11 17 -25 13 -12 -3 -21 -1 -21 4 0 5 -7 9 -16 9
-10 0 -14 -6 -10 -15 3 -8 1 -15 -5 -15 -5 0 -12 7 -15 15 -4 10 -13 13 -24
10 -10 -3 -21 -2 -24 4 -5 8 -124 51 -141 51 -3 0 -5 -40 -5 -90 l0 -90 1070
0 c589 0 1070 1 1070 3 0 2 -9 23 -21 47 -15 30 -20 55 -16 81 3 20 1 55 -3
77 -6 35 -4 42 16 52 12 7 27 9 34 5 9 -6 9 -2 0 15 -10 19 -9 26 11 45 13 13
53 39 89 58 36 19 82 44 103 57 22 13 42 19 47 14 5 -5 28 -108 52 -229 l44
-220 2230 -3 2230 -2 12 97 c20 149 44 283 53 283 9 0 108 -67 136 -93 21 -19
21 -20 5 -45 -10 -15 -17 -46 -17 -73 0 -39 -7 -58 -42 -108 l-42 -61 614 0
615 0 -3 21 c-3 30 21 36 25 7 l3 -23 1598 -3 1597 -2 0 1390 0 1390 -27 -6
c-16 -3 -48 -10 -73 -15 -25 -5 -79 -16 -120 -25 -41 -9 -97 -20 -125 -25 -27
-4 -97 -20 -155 -34 -58 -14 -141 -29 -185 -34 -44 -5 -109 -16 -145 -25 -36
-8 -82 -15 -102 -16 -30 0 -38 -4 -38 -18 0 -10 -6 -24 -12 -31 -11 -12 -9
-13 7 -6 11 4 31 10 45 13 14 3 30 11 35 18 6 7 21 15 35 16 14 2 31 8 39 12
11 7 13 5 8 -7 -9 -23 3 -27 49 -17 21 5 47 7 57 4 18 -6 24 -39 8 -48 -9 -6
-221 -45 -276 -51 -35 -4 -113 -31 -130 -45 -17 -14 -100 -20 -136 -10 -30 9
-35 6 -78 -41 -25 -28 -70 -67 -100 -87 -37 -25 -58 -47 -71 -76 -9 -23 -28
-55 -42 -71 -28 -34 -59 -90 -56 -102 1 -4 -5 -21 -15 -38 -21 -39 -21 -23 1
40 38 107 100 211 152 258 29 26 56 47 61 47 4 0 13 18 19 41 6 22 18 43 26
46 33 12 1 60 -34 49 -11 -4 -28 -23 -38 -43 -30 -60 -102 -162 -108 -156 -3
4 -6 0 -6 -7 0 -7 -3 -10 -7 -7 -3 4 -15 -1 -25 -10 -18 -16 -18 -16 -12 3 4
10 23 41 41 68 31 46 40 80 19 80 -4 0 -44 -23 -87 -49 -63 -40 -80 -56 -85
-80 -4 -16 -20 -54 -35 -84 -16 -30 -29 -68 -30 -85 -1 -30 -1 -30 -9 -6 -6
19 -8 12 -9 -31 -1 -54 0 -57 32 -72 17 -9 35 -13 40 -8 4 4 12 36 19 72 6 35
21 85 34 112 27 52 37 61 23 20 -5 -16 -22 -71 -38 -125 -26 -89 -27 -98 -12
-113 12 -13 7 -12 -24 4 -22 12 -43 21 -48 21 -5 0 -27 13 -50 30 -47 33 -98
75 -81 66 6 -3 22 -7 37 -10 23 -4 27 -1 27 20 0 17 4 23 12 18 8 -5 9 0 6 14
-4 12 -2 24 3 27 4 3 16 33 25 66 19 67 67 122 141 161 51 27 56 42 11 35 -18
-3 -55 -9 -81 -13 -40 -5 -56 -14 -88 -48 -21 -22 -39 -46 -39 -52 0 -6 -9
-19 -20 -29 -19 -17 -20 -17 -20 1 0 29 90 134 119 140 48 10 71 23 71 41 1
17 1 17 14 1 13 -18 56 -25 56 -9 0 4 12 6 26 3 31 -6 90 12 163 50 60 32 81
35 81 12 0 -13 2 -13 21 0 34 24 54 57 39 66 -16 10 -4 29 26 40 17 7 24 17
24 35 0 25 -1 25 -22 11 -12 -9 -26 -16 -31 -16 -9 0 -3 58 7 68 12 11 -17 32
-44 32 -20 0 -27 5 -26 17 0 10 -9 19 -24 23 -32 8 -36 31 -10 55 18 17 25 17
56 6 51 -18 59 -6 57 87 l-1 77 7 -65 c4 -36 14 -81 23 -100 28 -63 31 -80 13
-80 -9 0 -14 4 -11 8 12 19 -11 29 -49 23 -42 -7 -39 -14 8 -25 15 -3 27 -13
27 -20 0 -18 27 -28 34 -13 3 9 5 8 5 -1 1 -7 -4 -22 -9 -33 -10 -17 -7 -19
20 -19 39 0 70 16 70 36 0 8 10 25 23 37 34 32 41 57 16 57 -18 0 -19 2 -5 29
13 24 13 30 2 34 -14 6 -31 55 -22 65 3 2 12 -1 20 -7 16 -13 44 -4 45 14 2
17 26 11 26 -7 0 -9 4 -20 8 -24 4 -4 7 0 7 9 0 11 8 17 25 17 35 0 42 25 19
67 -17 33 -17 35 0 45 17 9 16 11 -4 33 -37 40 -24 60 43 63 33 2 57 8 57 14
0 7 -25 9 -82 4 -46 -4 -104 -8 -129 -10 -28 -2 -59 2 -80 13 -41 19 -49 51
-13 51 13 0 24 5 24 10 0 14 77 13 82 -1 7 -21 447 95 463 122 4 5 17 9 30 9
24 0 42 15 28 23 -5 3 -23 8 -40 12 -28 5 -32 4 -27 -9 9 -22 -13 -20 -44 4
-17 14 -29 17 -36 10 -5 -5 -18 -10 -28 -10 -13 0 -18 -8 -18 -25 0 -14 -1
-25 -3 -25 -1 0 -17 4 -36 10 -19 5 -31 7 -28 4 8 -9 -15 -30 -33 -32 -8 -1
-31 -4 -50 -8 -33 -6 -34 -5 -19 11 9 9 32 20 50 24 23 4 35 13 37 26 2 11 12
29 21 40 15 18 28 75 17 75 -3 0 -28 -15 -57 -33 -35 -21 -47 -33 -36 -35 16
-3 23 -32 12 -44 -7 -7 -86 11 -98 22 -5 4 -3 11 4 15 8 5 10 4 5 -3 -4 -7 -3
-12 3 -12 15 0 24 20 9 21 -7 1 -16 1 -21 0 -4 -1 -12 10 -18 23 -10 20 -8 29
10 52 11 15 21 33 21 40 0 20 102 29 156 14 33 -9 42 -16 32 -22 -9 -7 -5 -8
11 -4 25 5 335 -72 394 -98 18 -7 59 -19 92 -26 33 -7 98 -25 144 -41 46 -16
90 -29 98 -29 11 0 13 148 13 859 l0 859 -57 11 c-32 6 -80 16 -108 21 -27 6
-70 12 -95 15 -64 6 -172 25 -184 33 -6 3 -18 7 -26 7 -8 0 -32 4 -52 9 -37 8
-38 9 -38 56 0 61 7 80 31 80 25 0 227 -48 258 -61 13 -5 44 -12 68 -15 25 -3
77 -16 116 -30 40 -13 75 -24 80 -24 4 0 7 102 7 226 -1 172 -4 224 -13 221
-7 -2 -11 -9 -10 -15 1 -5 -7 -8 -18 -5 -12 3 -25 0 -29 -7 -5 -8 -10 -9 -14
-2 -3 6 3 13 14 17 28 9 25 27 -3 20 -13 -4 -43 1 -68 9 -55 19 -73 20 -66 2
3 -7 0 -19 -6 -25 -8 -8 -8 -11 0 -11 7 0 15 5 18 10 8 13 25 13 25 0 0 -16
-43 -29 -57 -18 -10 8 -13 6 -13 -6 0 -9 8 -16 19 -16 12 0 20 -9 23 -25 4
-16 1 -25 -8 -25 -7 0 -14 -6 -17 -12 -2 -7 -2 -2 0 12 2 14 0 20 -4 14 -4 -6
-19 -17 -32 -24 -22 -11 -23 -14 -8 -25 23 -16 21 -25 -3 -25 -11 0 -20 5 -20
10 0 14 -17 12 -56 -6 l-34 -16 23 -19 c12 -10 16 -18 10 -19 -7 0 -13 5 -13
11 0 7 -11 9 -30 6 -18 -4 -30 -2 -30 4 0 6 -9 8 -20 4 -11 -3 -20 -3 -20 2 0
5 -9 9 -20 9 -11 0 -20 -5 -20 -10 0 -6 -4 -6 -11 1 -16 16 9 173 27 173 8 0
14 5 14 10 0 6 -6 10 -13 10 -10 0 -11 17 -5 83 5 45 12 104 17 131 13 73 0
82 -140 90 -63 4 -134 14 -159 21 -25 8 -119 23 -211 35 -91 11 -216 29 -279
40 -63 10 -117 17 -119 14 -3 -2 6 -18 19 -36 12 -17 37 -56 54 -87 18 -31 40
-68 50 -83 16 -25 16 -28 3 -34 -28 -10 -85 45 -124 118 -52 100 -122 146
-223 148 -56 0 -67 7 -72 45 -3 26 -11 33 -80 62 -91 39 -201 64 -280 63 -39
-1 -70 5 -97 19 -26 14 -50 19 -69 15 -21 -4 -36 1 -60 20 l-31 27 -3 -33 c-4
-39 -27 -48 -63 -24 -31 21 -32 56 -4 131 21 57 27 62 60 45 10 -6 74 -13 141
-16 163 -7 162 -7 168 -14 5 -6 149 -42 180 -46 16 -2 107 -24 230 -55 41 -11
98 -24 125 -29 28 -5 73 -14 100 -20 59 -14 252 -58 310 -70 22 -5 81 -18 130
-29 80 -18 205 -42 290 -57 17 -2 44 -9 60 -14 17 -5 77 -18 135 -29 91 -17
218 -45 368 -81 23 -5 47 -10 52 -10 6 0 10 80 10 215 0 188 -2 215 -16 215
-14 0 -14 2 0 22 13 18 16 52 16 160 0 136 0 138 -22 138 -19 0 -20 2 -8 10
12 8 10 10 -8 10 -13 0 -20 -4 -17 -10 10 -16 -61 -12 -75 5 -7 8 -17 15 -22
15 -5 0 -16 -7 -24 -15 -17 -17 -54 -20 -54 -5 0 6 5 10 10 10 6 0 10 5 10 10
0 22 -31 8 -41 -17 l-11 -28 -9 23 c-5 13 -14 22 -21 21 -27 -3 -92 4 -75 8 9
2 17 9 17 14 0 12 -57 12 -65 -1 -3 -6 -1 -10 4 -10 6 0 11 -4 11 -10 0 -13
-57 -13 -65 -1 -3 5 -17 8 -31 5 -14 -3 -32 0 -39 6 -7 6 -20 8 -29 4 -8 -3
-35 3 -58 14 -64 30 -92 37 -83 21 5 -8 4 -11 -1 -6 -10 10 -12 197 -1 197 17
0 5 21 -17 31 -13 6 -26 19 -29 29 -3 10 -23 22 -53 30 -27 7 -54 17 -60 21
-12 10 -150 34 -246 44 -79 9 -180 -3 -138 -16 21 -6 22 -7 4 -8 -11 -1 -25 4
-32 11 -8 8 -59 13 -144 15 -166 4 -182 5 -199 20 -8 6 -28 15 -44 19 -17 4
-36 11 -43 17 -9 7 -16 7 -24 -1 -6 -6 -17 -8 -24 -5 -8 3 -14 -1 -14 -11 0
-9 6 -16 14 -16 7 0 20 -10 28 -21 11 -17 24 -21 66 -21 28 0 49 -4 46 -9 -3
-5 6 -13 20 -19 14 -5 26 -14 26 -20 0 -7 13 -9 35 -4 25 4 35 3 35 -6 0 -10
3 -10 15 0 12 10 16 8 25 -15 7 -17 15 -25 25 -22 9 4 12 1 9 -7 -3 -7 5 -18
18 -24 l23 -11 -22 0 c-13 -1 -23 -7 -23 -13 -1 -8 -6 -6 -14 5 -7 9 -26 17
-42 17 -16 0 -62 7 -103 15 -60 13 -76 14 -82 3 -7 -10 -9 -10 -9 2 0 8 -12
21 -27 28 -32 14 -46 16 -38 3 11 -19 -12 -19 -28 0 -21 23 -33 24 -46 2 -8
-14 -12 -15 -25 -4 -9 8 -23 10 -33 6 -16 -7 -15 -9 7 -15 18 -5 10 -7 -29 -7
-34 -1 -48 2 -40 8 11 7 11 9 -2 9 -8 0 -20 -5 -26 -11 -7 -7 -17 -8 -25 -3
-15 9 -11 9 -93 25 -58 11 -134 13 -144 4 -10 -11 -1 -66 15 -92 10 -15 19
-29 19 -31 1 -1 47 -5 101 -8 54 -3 135 -15 179 -25 44 -11 89 -20 100 -20 25
1 323 -58 350 -69 11 -5 27 -9 35 -9 8 0 35 -5 60 -11 25 -6 73 -16 108 -21
35 -6 75 -15 90 -21 15 -6 35 -10 45 -9 9 1 20 -4 23 -12 3 -10 18 -14 44 -12
22 1 37 -2 34 -6 -3 -5 21 -9 53 -9 32 0 85 -7 118 -16 33 -9 74 -16 90 -15
17 0 46 -4 65 -11 19 -6 46 -12 60 -13 85 -7 166 -18 170 -24 3 -3 20 -8 39
-9 19 -2 40 -10 48 -18 10 -10 20 -11 32 -5 12 7 26 5 45 -5 16 -8 35 -14 42
-14 8 0 14 -4 14 -10 0 -5 5 -10 11 -10 5 0 7 4 4 10 -3 5 -2 10 4 10 5 0 13
-4 16 -10 3 -5 15 -10 26 -10 10 0 19 -5 19 -10 0 -6 6 -10 13 -9 26 3 37 -2
37 -16 0 -15 -16 -20 -56 -16 -15 1 -24 -6 -28 -21 -9 -34 -8 -38 9 -38 9 0
29 -7 45 -15 21 -11 27 -20 23 -35 -4 -15 0 -20 15 -20 33 0 37 -20 8 -45 -21
-18 -23 -24 -11 -29 8 -3 22 -3 30 0 17 7 21 -11 4 -21 -7 -5 -5 -13 5 -24 9
-9 13 -26 10 -38 -5 -19 -11 -21 -67 -16 -38 3 -67 11 -74 20 -6 8 -16 12 -22
8 -7 -3 -8 0 -5 9 5 13 -2 16 -34 16 -23 0 -43 -5 -45 -12 -4 -10 -7 -10 -15
0 -5 7 -13 12 -18 10 -5 -2 -25 9 -45 25 -21 16 -48 27 -67 27 -18 0 -43 10
-61 25 l-30 26 -3 -31 -3 -30 -37 33 c-21 19 -38 41 -38 50 0 10 -4 17 -10 17
-5 0 -7 6 -4 13 3 8 -10 26 -31 41 -19 15 -35 22 -35 16 0 -8 -6 -8 -20 0 -15
8 -20 8 -20 -1 0 -6 -7 -8 -17 -5 -9 4 -19 2 -23 -4 -5 -7 -11 -6 -20 5 -10
12 -10 15 4 15 9 0 16 4 16 10 0 5 -6 7 -14 4 -19 -7 -31 33 -16 51 10 12 9
15 -3 15 -9 0 -18 -8 -20 -17 -3 -13 -5 -10 -6 7 -1 14 -8 34 -16 44 -8 10
-12 23 -8 29 3 6 1 7 -5 3 -7 -4 -12 -3 -12 2 0 11 -68 32 -105 32 -27 0 -103
36 -117 55 -5 6 -8 6 -8 -1 0 -13 -43 -34 -73 -35 -12 0 -16 -3 -9 -6 20 -8
14 -20 -13 -27 -14 -4 -25 -13 -25 -21 0 -8 11 -17 25 -21 22 -6 25 -11 25
-55 0 -38 4 -49 16 -49 12 0 14 -7 8 -32 -10 -47 -23 -78 -23 -57 -1 16 -28
29 -63 29 -27 0 -21 -29 7 -42 14 -6 24 -17 21 -24 -3 -8 -1 -16 4 -19 23 -14
8 -27 -22 -21 -36 6 -108 13 -209 20 -36 3 -78 10 -93 16 -15 5 -31 8 -35 5
-5 -2 -42 2 -82 10 -41 9 -87 17 -104 20 -197 29 -284 56 -385 120 -22 14 -46
25 -54 25 -7 0 -19 7 -26 15 -15 18 -56 20 -63 3 -3 -7 -6 -4 -6 7 -1 12 4 26
9 31 11 11 24 155 24 259 0 33 -9 83 -18 110 -57 160 -68 184 -87 190 -11 4
-28 24 -39 46 -21 40 -138 129 -171 129 -9 0 -22 7 -30 16 -19 23 -57 39 -124
54 -33 7 -63 17 -67 24 -5 8 -13 7 -29 -2 -13 -8 -35 -11 -58 -7 -39 6 -164
-17 -185 -34 -10 -8 -17 -7 -26 4 -7 8 -19 15 -27 15 -29 0 -112 -32 -117 -45
-3 -9 0 -12 10 -8 10 4 14 -2 14 -21 0 -19 -5 -26 -19 -26 -11 0 -21 5 -23 12
-7 19 -63 -9 -79 -38 -10 -19 -18 -24 -34 -19 -49 17 -95 5 -95 -24 0 -28 -14
-34 -54 -23 -50 14 -66 -1 -36 -33 22 -23 25 -36 26 -107 0 -68 3 -82 20 -92
41 -24 81 -35 135 -35 78 -1 102 -24 93 -90 -6 -45 -4 -49 30 -79 20 -17 36
-37 36 -45 0 -7 -16 -28 -35 -47 -37 -36 -46 -78 -21 -99 8 -7 20 -35 26 -64
13 -52 34 -87 54 -87 6 0 28 -5 48 -10 35 -10 37 -12 27 -38 -7 -18 -7 -28 0
-30 6 -2 11 -10 11 -18 0 -8 6 -14 13 -14 6 0 0 -10 -15 -23 -31 -26 -38 -46
-44 -125 -9 -119 -12 -137 -24 -134 -9 2 -11 -9 -6 -42 8 -50 0 -59 -66 -71
-47 -9 -71 14 -93 88 -10 34 -28 65 -49 86 l-34 33 -21 -23 c-11 -13 -21 -29
-21 -36 0 -15 -18 -49 -40 -76 -25 -32 -41 -198 -29 -316 6 -62 -17 -66 -32
-7 -11 43 -30 59 -44 36 -3 -5 -20 -16 -38 -25 -28 -13 -36 -27 -60 -103 -16
-48 -30 -112 -30 -144 -1 -32 -6 -58 -10 -58 -5 0 -6 -4 -3 -9 3 -5 -1 -11 -9
-15 -11 -4 -14 3 -12 32 2 34 0 37 -23 34 -34 -5 -47 -24 -55 -83 -4 -27 -12
-55 -18 -62 -22 -24 -47 -79 -47 -102 0 -13 16 -53 35 -89 53 -100 50 -106
-54 -115 -95 -9 -96 -16 -28 -153 46 -91 65 -119 100 -146 24 -17 49 -32 55
-32 13 0 103 -93 145 -151 l31 -41 63 5 c53 4 67 1 88 -15 14 -11 25 -26 25
-33 0 -8 16 -26 35 -41 20 -15 34 -32 32 -38 -5 -16 -39 -10 -277 51 -208 53
-402 101 -640 158 -63 15 -124 31 -135 36 -22 8 -220 57 -264 64 -36 6 -147
31 -235 54 -21 5 -45 7 -53 4 -8 -3 -19 0 -24 8 -7 11 -9 11 -9 -3 0 -12 -5
-15 -16 -11 -12 5 -15 -3 -13 -43 1 -27 6 -73 11 -102 5 -30 10 -63 12 -75 1
-12 8 -41 15 -63 13 -41 16 -42 85 -62 94 -27 566 -157 686 -188 52 -14 115
-31 140 -39 25 -8 73 -21 107 -31 101 -27 108 -46 78 -193 -14 -70 -23 -90
-48 -114 -37 -34 -70 -52 -117 -62 -45 -10 -74 -29 -88 -59 -6 -13 -40 -45
-75 -70 -37 -27 -79 -67 -99 -98 -55 -82 -111 -138 -139 -138 -32 0 -41 -8
-72 -57 -37 -58 -62 -80 -142 -120 -63 -33 -174 -67 -184 -58 -2 2 4 12 14 21
21 21 35 57 35 89 0 14 9 29 20 35 11 6 20 20 20 31 0 34 71 304 82 310 6 4 7
12 3 18 -4 7 5 30 19 51 14 22 26 48 26 59 0 10 7 24 15 31 8 7 15 21 15 31 0
10 22 62 49 116 67 135 67 138 20 157 -22 9 -51 16 -64 16 -20 0 -25 -5 -25
-26 0 -15 -4 -23 -11 -19 -5 4 -9 18 -7 33 2 21 -3 27 -32 38 -19 7 -50 13
-68 13 -18 1 -42 5 -52 11 -10 5 -42 16 -72 24 -29 8 -102 29 -163 46 -211 60
-562 150 -586 150 -30 0 -49 17 -49 43 0 26 34 21 250 -37 236 -64 286 -77
495 -131 99 -26 223 -58 275 -72 52 -14 113 -28 134 -30 35 -5 38 -4 34 15 -4
14 -1 22 11 24 31 7 -23 26 -205 73 -99 25 -204 52 -234 61 -30 8 -131 34
-225 59 -93 24 -240 63 -325 86 -85 24 -175 43 -200 43 -37 1 -46 -3 -56 -24
-11 -22 -42 -172 -49 -240 -25 -230 -39 -318 -70 -455 -8 -33 -19 -94 -25
-135 -19 -123 -41 -211 -51 -204 -5 3 -7 14 -4 25 4 10 3 24 -2 31 -5 8 -11
-4 -16 -32 -14 -80 -13 -85 6 -82 20 3 21 -19 3 -93 -12 -49 -13 -49 -24 -24
-6 15 -8 45 -5 67 4 30 1 45 -11 57 -19 19 -21 65 -5 115 6 19 10 64 10 99 -2
64 14 125 29 116 4 -3 11 -25 14 -50 4 -25 11 -45 16 -45 7 0 26 64 33 110 1
8 -10 20 -25 28 -33 16 -49 42 -50 83 -1 44 21 63 55 48 31 -14 42 -8 33 17
-5 12 -14 15 -36 10 -26 -5 -32 -2 -41 20 -9 25 -5 176 5 193 3 4 0 26 -5 50
-6 29 -6 56 2 84 6 23 11 73 11 111 1 62 4 72 30 99 21 23 28 39 26 61 -3 28
0 30 30 32 23 1 45 12 68 35 19 19 37 33 40 32 12 -8 22 0 33 23 15 34 8 41
-29 27 -25 -9 -30 -9 -30 4 0 10 -8 13 -27 11 -25 -3 -28 0 -31 31 -4 44 8 55
52 47 28 -5 36 -12 36 -28 0 -20 0 -20 18 2 16 19 24 22 56 16 35 -7 37 -8 20
-21 -11 -8 -28 -15 -39 -15 -20 -1 -20 -1 -1 -15 11 -8 22 -11 25 -6 3 4 21
11 39 15 17 3 46 9 62 12 31 6 38 22 20 40 -13 13 -3 41 17 48 19 8 57 -16 79
-49 19 -29 53 -33 87 -10 15 9 56 16 117 18 60 2 95 8 98 15 6 19 44 14 164
-22 300 -90 625 -176 667 -176 31 0 43 21 21 35 -25 15 -50 86 -50 140 0 49
-14 107 -53 218 -23 66 -83 108 -187 133 -76 18 -115 17 -210 -5 -111 -27
-123 -20 -63 35 78 72 122 89 233 89 104 0 156 -18 207 -73 33 -35 78 -132 93
-200 l12 -53 24 22 c14 13 45 61 71 109 25 47 74 126 109 177 34 50 71 111 82
135 29 64 160 248 177 248 8 0 16 6 16 13 5 47 4 69 -6 76 -11 9 -226 62 -352
87 -206 41 -529 70 -600 54 -44 -10 -70 1 -85 38 -13 29 -15 995 -3 1083 6 42
4 49 -22 73 -32 30 -33 30 -243 51 -85 9 -189 22 -230 30 -165 31 -173 29
-185 -36 -5 -28 -1 -49 19 -91 14 -30 26 -64 26 -76 0 -41 18 -70 52 -81 18
-6 47 -23 63 -37 17 -14 57 -47 90 -73 33 -25 70 -57 82 -71 31 -35 72 -115
90 -175 8 -27 28 -68 44 -92 38 -54 38 -97 1 -143 -31 -37 -36 -69 -48 -300
-5 -87 -3 -101 19 -152 23 -52 24 -58 10 -87 -11 -22 -23 -31 -39 -31 -25 0
-154 67 -154 80 0 4 10 20 22 35 l21 27 -21 43 c-22 46 -24 40 32 120 13 18
20 47 22 88 2 34 6 83 9 108 5 35 3 48 -9 58 -18 15 -21 53 -7 79 8 16 24 136
23 175 -1 37 -22 47 -93 47 -85 0 -99 15 -99 105 0 54 -3 64 -28 88 -36 34
-102 57 -167 57 -76 0 -89 17 -75 105 6 37 8 74 6 84 -8 23 -16 85 -23 162
l-5 66 46 37 c56 47 86 93 86 135 0 18 6 44 14 59 16 33 28 211 15 235 -9 16
-109 17 -1585 17 -1496 0 -1575 -1 -1570 -17 8 -30 31 -470 31 -603 0 -62 -2
-67 -38 -104 -43 -44 -142 -80 -262 -95 -38 -5 -95 -16 -126 -25 -31 -9 -89
-20 -130 -25 -62 -8 -194 -36 -194 -41 0 0 -29 -3 -64 -6 -36 -3 -72 -9 -80
-14 -35 -18 -166 -47 -296 -66 -22 -3 -58 -10 -80 -15 -22 -6 -60 -10 -83 -9
-24 0 -49 -3 -55 -8 -17 -13 -122 -32 -173 -32 -61 0 -70 19 -83 175 -15 173
-39 544 -47 733 l-7 152 -237 0 -237 0 3 -27z m4310 -155 c4 -6 -1 -17 -12
-25 -15 -11 -20 -11 -32 1 -8 8 -11 19 -8 25 9 14 43 14 52 -1z m-147 -17 c2
-1 -13 -19 -33 -42 -32 -35 -37 -46 -34 -82 4 -55 26 -59 77 -15 22 18 61 41
89 51 41 15 53 16 77 5 26 -12 29 -10 54 19 30 36 70 50 98 34 11 -5 36 -43
55 -83 20 -40 48 -88 62 -107 47 -63 33 -71 -76 -49 -78 16 -88 6 -60 -61 24
-55 30 -122 14 -162 -16 -39 -70 -81 -90 -70 -34 19 -61 58 -77 114 -9 31 -20
57 -24 57 -4 0 -13 -17 -19 -39 -18 -57 -34 -67 -84 -50 -23 7 -51 24 -62 36
-23 27 -36 29 -36 8 0 -16 -15 -20 -24 -7 -3 5 -37 15 -76 22 l-71 13 -29 -31
c-24 -27 -36 -32 -74 -32 -35 0 -49 -5 -63 -23 -10 -13 -34 -27 -53 -31 -55
-10 -61 -18 -71 -97 -10 -71 -31 -129 -47 -129 -5 0 -23 11 -42 25 -30 22 -36
23 -54 12 -11 -8 -28 -30 -39 -50 -16 -30 -17 -45 -10 -95 5 -32 7 -64 5 -70
-6 -18 -33 -15 -70 8 -59 36 -60 35 -93 -105 -14 -59 -45 -115 -64 -115 -7 0
-24 -12 -37 -28 -38 -44 -79 -72 -108 -72 -15 0 -40 -12 -58 -28 -18 -16 -57
-41 -87 -57 -59 -29 -62 -34 -43 -68 14 -25 18 -96 6 -103 -19 -12 -4 -27 50
-50 42 -19 77 -47 137 -110 67 -70 89 -88 137 -104 97 -34 127 -26 162 42 13
27 17 47 12 73 -8 43 13 85 43 85 10 0 35 -18 55 -40 28 -32 36 -48 36 -79 0
-56 15 -88 49 -105 34 -18 166 -40 331 -56 63 -6 185 -18 270 -26 219 -21 278
-32 291 -55 15 -29 2 -59 -26 -59 -14 0 -26 -7 -29 -18 -4 -11 -17 -25 -31
-32 -14 -7 -28 -23 -31 -34 -8 -26 -22 -36 -51 -36 -12 0 -27 -9 -33 -20 -13
-24 -61 -27 -83 -6 -8 8 -19 11 -26 6 -10 -5 -10 -9 -2 -14 6 -4 9 -12 5 -17
-3 -5 -10 -7 -15 -3 -11 7 -73 15 -126 16 -25 1 -33 6 -33 20 0 21 -26 23
-115 7 -94 -17 -117 -19 -165 -19 -53 1 -47 -9 10 -20 31 -6 43 -4 47 6 3 8 9
14 14 14 4 0 6 -6 3 -13 -8 -21 13 -65 43 -93 26 -24 26 -25 7 -39 -26 -19
-69 -19 -100 2 -22 14 -32 14 -72 4 -26 -7 -57 -15 -69 -18 -19 -4 -23 -1 -23
19 0 14 9 33 20 43 29 26 25 42 -12 48 -47 8 -140 -1 -149 -14 -5 -8 -12 -8
-27 0 -29 16 -52 14 -52 -5 0 -20 -51 -84 -67 -84 -15 0 -16 5 -4 48 8 26 7
32 -6 32 -13 0 -15 -9 -11 -50 5 -47 4 -50 -18 -50 -17 0 -24 -6 -24 -20 0
-14 7 -20 24 -20 13 0 26 -6 29 -14 4 -10 -2 -13 -24 -12 -33 2 -39 -17 -11
-34 14 -9 13 -10 -7 -4 -15 4 -27 1 -33 -7 -6 -9 -7 -3 -3 19 9 44 -9 41 -23
-4 -8 -26 -8 -42 1 -61 9 -19 8 -26 -4 -34 -8 -5 -9 -9 -4 -9 14 0 43 20 30
20 -5 1 4 7 20 14 25 12 27 15 13 21 -10 4 -15 12 -12 17 4 6 9 5 14 -2 6 -10
20 -5 55 19 102 69 272 126 321 107 9 -4 23 -1 30 5 8 7 14 7 14 1 0 -17 -24
-29 -70 -37 -25 -4 -54 -12 -65 -19 -11 -6 -24 -11 -30 -12 -61 -6 -216 -86
-274 -141 -25 -24 -50 -43 -57 -43 -6 0 -15 -11 -18 -25 -4 -17 -11 -23 -19
-19 -7 4 -9 3 -4 -1 4 -5 0 -19 -9 -32 -8 -14 -17 -36 -19 -51 -1 -15 -3 -31
-4 -36 0 -5 -7 -4 -13 1 -7 6 -94 36 -193 68 -99 31 -207 66 -239 76 -33 10
-65 19 -73 19 -7 0 -13 5 -13 10 0 6 -10 10 -22 10 -19 0 -139 35 -198 57 -8
3 -20 7 -27 9 -42 8 -121 39 -136 52 -10 9 -33 15 -50 15 -27 -2 -29 -1 -12 8
17 7 14 9 -12 6 -18 -2 -29 1 -26 6 3 5 -3 6 -15 3 -11 -4 -30 -2 -43 3 -13 5
-59 19 -101 32 -42 12 -75 26 -73 30 3 4 -5 5 -17 1 -13 -3 -19 -1 -15 5 4 7
-12 18 -40 27 -54 19 -67 20 -58 6 3 -6 -4 -10 -18 -10 -35 0 -56 -30 -67 -91
-9 -60 -99 -337 -124 -384 -9 -16 -19 -45 -22 -63 -3 -18 -10 -35 -15 -38 -5
-3 -9 -15 -9 -27 0 -12 -41 -143 -91 -292 -50 -148 -93 -286 -96 -305 -4 -31
-1 -38 24 -50 15 -8 39 -26 53 -41 22 -23 94 -56 220 -99 197 -68 678 -238
790 -280 55 -21 115 -35 170 -40 84 -8 140 -25 140 -42 0 -5 -26 -6 -59 -2
-99 11 -122 2 -200 -78 -38 -39 -75 -84 -82 -99 -6 -16 -17 -29 -24 -29 -7 0
-59 -22 -116 -48 -112 -53 -120 -56 -343 -157 -174 -79 -182 -79 -320 -19 -94
41 -126 72 -126 124 0 45 52 184 88 233 33 46 37 48 70 42 20 -4 54 -15 76
-24 108 -48 164 -71 172 -71 5 0 20 -6 34 -13 46 -24 121 -49 127 -43 3 3 0
12 -7 21 -17 20 -5 49 18 42 9 -3 31 -10 49 -15 25 -8 39 -6 67 9 20 10 42 19
50 19 8 0 27 6 43 14 15 8 48 23 73 34 109 47 112 48 97 60 -11 10 -157 65
-267 102 -14 4 -83 29 -155 55 -286 103 -588 203 -600 199 -18 -7 -6 -51 16
-57 10 -3 19 -12 19 -21 0 -10 9 -16 25 -16 17 0 26 -6 27 -17 0 -10 2 -24 2
-31 1 -8 9 -18 19 -23 18 -11 24 -49 7 -49 -5 0 -10 -4 -10 -10 0 -5 16 -10
35 -10 25 0 33 -4 29 -14 -3 -8 -1 -17 4 -20 10 -6 4 -56 -7 -56 -4 0 -26 -18
-49 -41 -43 -41 -62 -43 -62 -8 0 19 3 27 34 87 21 39 15 62 -16 62 -18 0 -28
-11 -46 -50 -25 -53 -55 -67 -67 -30 -7 23 -25 27 -25 6 0 -8 -15 -19 -32 -25
-30 -11 -35 -10 -55 14 -13 14 -23 32 -23 39 0 23 -80 -23 -91 -52 -5 -14 -9
-43 -9 -66 0 -23 -2 -75 -6 -116 -4 -41 -6 -99 -6 -128 0 -51 -2 -54 -39 -79
-21 -14 -45 -23 -54 -19 -8 3 -26 29 -39 58 -17 35 -39 63 -67 83 -93 67 -139
141 -139 225 0 15 -3 30 -7 34 -5 4 -8 15 -8 24 -1 35 -26 138 -40 164 -18 31
-19 58 -4 91 7 16 7 34 1 58 -9 30 -10 31 -12 9 -1 -23 -2 -23 -10 -5 -13 29
-12 33 7 37 15 3 14 6 -6 25 -22 20 -22 23 -7 44 9 13 16 40 16 61 0 28 4 38
16 38 8 0 12 5 9 10 -3 6 -15 10 -25 10 -25 0 -31 63 -11 105 13 27 13 29 -2
17 -14 -12 -17 -9 -22 21 -4 20 -4 45 -1 56 3 12 9 30 12 41 4 15 2 18 -10 14
-35 -13 -49 91 -16 121 15 14 17 22 9 37 -31 58 -44 198 -18 198 9 0 40 55 34
61 -2 2 7 5 19 5 25 2 82 26 136 59 19 12 58 30 85 40 28 10 102 43 165 72 63
30 143 65 176 78 34 13 90 37 125 53 35 16 78 34 94 40 17 5 64 24 106 41 73
30 78 34 97 81 11 26 31 55 44 64 22 14 30 14 89 -2 111 -31 130 -4 88 121
-19 55 -20 68 -9 115 10 46 10 56 -4 71 -12 13 -16 40 -16 110 0 100 9 126 65
196 25 31 30 44 22 56 -15 24 -1 64 28 79 37 20 115 17 130 -4 25 -34 -12 -86
-62 -86 -12 0 -25 -5 -28 -10 -10 -17 21 -22 69 -12 42 9 47 7 69 -17 71 -76
103 -211 82 -337 -9 -54 15 -130 42 -128 10 1 56 16 103 32 72 27 89 37 113
71 22 32 38 43 82 56 30 8 55 18 55 21 0 3 -6 12 -14 20 -25 24 -30 115 -11
180 20 68 70 180 85 189 6 4 23 34 39 68 38 82 124 192 186 239 27 20 57 52
66 71 12 22 31 39 57 49 30 12 41 23 46 44 9 36 21 52 69 89 23 17 51 53 69
89 31 61 101 160 133 186 9 7 25 30 35 50 10 20 49 68 87 107 56 57 86 78 165
116 54 26 109 47 123 47 15 0 46 5 71 11 36 9 45 17 50 38 12 56 57 150 86
180 42 42 154 121 186 131 22 6 41 7 71 1z m481 -423 c19 -20 21 -33 18 -95
-3 -58 -8 -76 -26 -96 -24 -25 -20 -37 11 -37 11 0 51 -16 88 -35 38 -19 83
-35 100 -35 38 0 95 -52 104 -96 4 -16 13 -43 21 -60 7 -17 18 -60 23 -95 14
-101 86 -279 111 -279 6 0 18 -16 27 -35 13 -27 14 -40 5 -59 -10 -23 -9 -27
23 -42 28 -13 38 -26 49 -63 41 -134 120 -282 172 -321 18 -14 45 -44 60 -68
15 -23 46 -59 68 -78 91 -79 106 -97 105 -129 0 -16 -4 -38 -8 -48 -6 -17 -8
-17 -20 -3 -7 9 -23 16 -36 16 -25 0 -148 126 -173 178 -9 17 -19 32 -23 32
-3 0 -31 35 -60 78 -29 42 -73 97 -97 122 -64 65 -106 159 -107 237 0 55 -2
63 -23 72 -13 6 -36 11 -52 11 -61 0 -98 63 -130 225 -4 22 -9 36 -10 30 -1
-5 -5 1 -9 15 -4 16 -15 26 -30 28 -53 8 -87 -76 -56 -142 9 -19 18 -45 20
-58 4 -36 16 -58 30 -58 7 0 15 -7 19 -15 3 -8 16 -15 29 -15 34 0 51 -23 37
-49 -17 -33 -73 -29 -99 8 -12 16 -41 41 -66 55 -37 22 -51 40 -82 103 -20 42
-57 97 -81 122 -24 25 -47 55 -51 66 -4 11 -7 77 -6 147 2 116 0 127 -17 131
-22 6 -47 62 -41 88 4 16 15 19 57 19 29 0 55 2 58 5 3 3 -8 20 -23 36 -30 32
-40 91 -19 104 6 4 9 22 8 42 -4 60 60 85 102 41z m410 -26 c0 -9 -12 -35 -26
-56 -24 -34 -28 -37 -42 -23 -13 13 -13 20 -2 47 19 46 70 69 70 32z m5050
-62 c0 -5 -8 -10 -17 -10 -15 0 -16 2 -3 10 19 12 20 12 20 0z m-6505 -320 c3
-5 1 -10 -4 -10 -6 0 -11 5 -11 10 0 6 2 10 4 10 3 0 8 -4 11 -10z m6062 -16
c-3 -3 -12 -4 -19 -1 -8 3 -5 6 6 6 11 1 17 -2 13 -5z m-1813 -202 c-2 -15 0
-34 6 -42 9 -13 13 -11 31 9 11 14 18 33 16 43 -4 15 -2 16 14 8 19 -11 23
-22 34 -95 17 -112 17 -156 -1 -176 -9 -10 -21 -19 -26 -19 -16 0 -38 27 -38
47 -1 16 -3 15 -19 -4 -11 -13 -29 -23 -41 -23 -24 0 -24 6 -4 84 5 22 3 28
-14 33 -29 7 -34 29 -16 64 9 19 13 41 9 58 -4 20 -1 34 11 45 22 23 45 4 38
-32z m2859 41 c-7 -2 -21 -2 -30 0 -10 3 -4 5 12 5 17 0 24 -2 18 -5z m-976
-46 c-6 -20 -27 -19 -27 2 0 14 5 19 15 14 9 -3 14 -10 12 -16z m427 -22 c3
-8 1 -15 -4 -15 -6 0 -10 7 -10 15 0 8 2 15 4 15 2 0 6 -7 10 -15z m-8887 -11
c2 -5 -16 -8 -42 -6 -25 2 -45 8 -45 12 0 11 83 6 87 -6z m9085 -186 c-12 -12
-35 -1 -27 12 3 5 13 6 21 3 10 -4 12 -9 6 -15z m193 12 c3 -5 21 -10 38 -10
30 -1 31 -2 13 -15 -10 -7 -15 -18 -12 -23 7 -11 -71 -28 -81 -18 -4 3 5 6 18
7 15 1 6 5 -21 11 l-45 11 35 13 c23 8 28 13 15 13 -17 1 -17 3 -5 11 19 13
37 13 45 0z m-10363 -20 c33 0 37 -2 26 -14 -8 -7 -25 -17 -38 -21 -13 -4 -32
-15 -42 -25 -23 -21 -198 -73 -231 -68 -18 2 -23 10 -25 42 -2 21 1 43 7 49
12 12 228 47 249 41 8 -2 32 -4 54 -4z m3638 -21 c0 -5 -7 -9 -15 -9 -15 0
-20 12 -9 23 8 8 24 -1 24 -14z m6630 11 c0 -5 -7 -10 -15 -10 -8 0 -15 5 -15
10 0 6 7 10 15 10 8 0 15 -4 15 -10z m-6630 -34 c0 -2 -7 -6 -15 -10 -8 -3
-15 -1 -15 4 0 6 7 10 15 10 8 0 15 -2 15 -4z m-10 -47 c0 -5 -4 -9 -10 -9 -5
0 -10 7 -10 16 0 8 5 12 10 9 6 -3 10 -10 10 -16z m3586 -93 c6 -25 -10 -66
-26 -66 -6 0 -10 13 -10 29 0 58 24 83 36 37z m-2416 -84 c38 -41 84 -155 76
-188 -11 -41 -61 -87 -88 -78 -39 12 -58 40 -77 115 -32 128 -32 135 -9 164
25 33 60 28 98 -13z m2942 -35 c10 -8 20 -35 24 -66 5 -36 11 -51 19 -47 17 6
23 -31 30 -174 6 -112 5 -117 -17 -141 -21 -22 -22 -27 -9 -39 10 -10 11 -15
3 -18 -7 -2 -12 -11 -12 -19 0 -11 -6 -14 -22 -9 -13 3 -29 6 -37 6 -10 0 -7
9 11 28 44 47 45 55 31 185 -8 67 -11 136 -9 152 5 29 5 29 -19 -10 -35 -55
-56 -134 -64 -233 -5 -67 -11 -87 -26 -98 -17 -12 -20 -12 -28 1 -7 14 -15 11
-53 -20 -45 -38 -54 -34 -30 13 7 15 19 58 25 96 7 39 15 75 19 80 3 6 8 20 9
31 5 32 35 109 50 123 7 7 13 27 13 44 0 43 -14 25 -19 -24 -2 -14 -32 -8 -38
7 -8 23 16 101 38 121 11 9 19 14 19 10 0 -4 8 -2 18 3 23 14 54 13 74 -2z
m102 -48 c14 -11 31 -17 37 -13 8 4 9 3 5 -4 -4 -7 -1 -12 8 -12 8 0 18 -5 22
-11 4 -7 -4 -10 -22 -7 -25 3 -29 -1 -32 -24 -2 -16 -6 -28 -10 -28 -14 1 -52
72 -52 96 0 29 9 30 44 3z m-405 -6 c0 -10 -4 -27 -8 -38 -7 -17 -9 -16 -13
10 -4 17 -4 33 -1 37 8 15 23 8 22 -9z m-1899 -324 c0 -23 -31 -57 -55 -61
-17 -3 -19 3 -19 53 1 31 4 61 8 68 4 6 2 11 -4 11 -6 0 -8 5 -4 12 9 14 74
-59 74 -83z m-5690 57 c0 -8 -4 -18 -10 -21 -5 -3 -10 3 -10 14 0 12 5 21 10
21 6 0 10 -6 10 -14z m-255 -26 c-16 -11 -38 -20 -47 -20 -10 0 -26 -10 -38
-22 -16 -17 -20 -19 -20 -6 0 10 22 27 52 42 62 31 96 35 53 6z m8425 -16 c0
-36 -68 -154 -94 -164 -13 -5 -31 -2 -49 7 -25 12 -27 16 -15 31 7 9 16 19 19
22 3 3 18 23 32 45 36 55 49 70 72 82 25 15 35 8 35 -23z m2549 29 c-1 -15
-59 -55 -72 -50 -7 3 -5 6 6 6 19 1 23 16 7 26 -6 4 -8 11 -5 16 7 11 65 12
64 2z m38 -30 c-3 -10 -5 -4 -5 12 0 17 2 24 5 18 2 -7 2 -21 0 -30z m-10588
21 c48 -10 37 -24 -19 -24 -46 0 -60 7 -43 23 8 9 22 9 62 1z m-89 -23 c0 -5
-11 -11 -25 -13 -26 -5 -35 6 -12 15 20 9 37 8 37 -2z m10697 -27 c-3 -3 -12
-4 -19 -1 -8 3 -5 6 6 6 11 1 17 -2 13 -5z m-2420 -46 c-3 -8 -6 -5 -6 6 -1
11 2 17 5 13 3 -3 4 -12 1 -19z m2333 18 c0 -2 -7 -7 -16 -10 -8 -3 -12 -2 -9
4 6 10 25 14 25 6z m107 -2 c-3 -3 -12 -4 -19 -1 -8 3 -5 6 6 6 11 1 17 -2 13
-5z m-282 -24 c3 -5 -3 -10 -15 -10 -12 0 -18 5 -15 10 3 6 10 10 15 10 5 0
12 -4 15 -10z m-1888 -56 c-6 -60 -18 -81 -37 -69 -23 14 8 125 34 125 5 0 6
-25 3 -56z m2170 50 c-3 -3 -12 -4 -19 -1 -8 3 -5 6 6 6 11 1 17 -2 13 -5z
m-5158 -92 c1 -7 -3 -10 -9 -7 -5 3 -10 21 -9 38 1 31 1 31 9 7 4 -14 8 -31 9
-38z m2205 22 c31 -30 15 -64 -30 -64 -27 0 -34 -4 -34 -19 0 -10 -7 -24 -15
-31 -13 -10 -15 -9 -15 8 0 11 7 27 15 36 8 8 15 22 15 32 0 18 27 54 41 54 4
0 15 -7 23 -16z m-3417 -25 c20 9 32 8 56 -4 39 -20 49 -19 80 5 60 48 94 10
45 -51 -29 -37 -30 -40 -15 -57 37 -41 9 -75 -45 -54 -24 9 -30 8 -38 -9 -6
-10 -20 -19 -30 -19 -11 0 -33 -14 -49 -32 l-28 -32 -57 21 c-52 19 -56 19
-56 4 0 -10 -3 -21 -7 -25 -4 -3 -8 -14 -9 -24 -1 -9 -5 -25 -9 -34 -4 -11 0
-23 14 -35 28 -24 27 -59 -1 -66 -33 -9 -34 -53 -2 -74 13 -8 24 -21 24 -29 0
-7 14 -35 30 -61 17 -26 30 -53 30 -61 0 -25 -31 8 -50 53 -21 48 -172 206
-252 264 -32 23 -58 44 -58 47 0 11 131 -78 182 -124 22 -20 38 -29 38 -21 1
8 2 36 4 63 5 61 -3 83 -53 149 -34 44 -38 54 -26 67 7 8 15 24 17 35 2 12 24
30 62 48 39 18 56 32 53 41 -9 23 61 36 97 18 22 -11 34 -11 53 -3z m4462
-192 c-10 -125 -26 -222 -43 -252 -5 -11 -9 -23 -8 -26 0 -4 -8 -9 -18 -12
-19 -5 -29 8 -11 15 4 2 15 66 24 143 9 77 24 178 34 225 15 77 17 82 24 52 4
-19 3 -84 -2 -145z m-940 68 c-17 -55 -29 -66 -29 -24 0 18 -3 43 -6 54 -3 11
3 30 13 42 l18 22 8 -27 c4 -16 3 -44 -4 -67z m635 -32 c-25 -39 -46 -15 -28
32 6 15 8 15 23 1 12 -12 13 -21 5 -33z m-9185 2 c-12 -19 -26 -38 -33 -42 -8
-5 -8 -3 0 8 5 8 18 26 27 42 25 40 30 33 6 -8z m5346 9 c16 -25 16 -27 -3
-47 -28 -28 -54 -16 -46 20 13 63 22 68 49 27z m5110 -11 c96 -25 110 -32 107
-49 -2 -10 -8 -23 -13 -29 -7 -7 -8 -4 -4 7 6 14 -4 17 -62 23 -37 3 -85 8
-105 10 -21 2 -38 3 -38 1 0 -7 132 -46 152 -46 28 0 80 -29 72 -41 -3 -6 -20
-8 -38 -5 -82 13 -103 18 -133 27 -18 6 -37 8 -42 4 -12 -7 -34 32 -26 45 3 5
-1 26 -10 46 -8 20 -15 39 -15 41 0 6 12 4 155 -34z m-5997 -16 c12 -3 11 -5
-5 -6 -25 -1 -38 13 -26 32 5 9 8 8 11 -5 2 -9 11 -19 20 -21z m82 18 c11 -13
10 -14 -4 -9 -9 3 -16 10 -16 15 0 13 6 11 20 -6z m3789 -55 c18 -43 26 -50
49 -50 35 0 52 -17 52 -51 0 -40 -16 -44 -65 -19 -24 12 -51 20 -60 17 -27
-11 -29 -8 -26 33 1 24 -2 40 -8 40 -6 0 -11 -7 -11 -16 0 -14 -3 -14 -15 -4
-12 10 -13 16 -4 26 6 8 15 11 19 9 5 -3 12 15 16 40 8 55 21 49 53 -25z m92
35 c-1 -15 -24 -12 -29 3 -3 9 2 13 12 10 10 -1 17 -7 17 -13z m-3171 -35 c11
-11 31 -20 44 -20 14 0 28 -5 32 -11 3 -6 17 -8 30 -5 26 7 64 -8 64 -24 0 -6
-11 -10 -24 -10 -21 0 -26 -6 -33 -42 -11 -53 -36 -62 -51 -18 -6 16 -22 34
-34 39 -13 5 -30 16 -38 26 -9 11 -22 14 -37 10 -17 -4 -31 1 -49 17 -30 29
-30 38 -1 38 12 0 29 5 37 10 23 15 38 12 60 -10z m5617 -12 c-3 -8 -6 -5 -6
6 -1 11 2 17 5 13 3 -3 4 -12 1 -19z m-8565 -7 c13 -6 122 -41 243 -79 465
-148 578 -185 633 -207 31 -12 84 -29 117 -37 33 -9 105 -30 160 -48 55 -18
119 -34 143 -34 45 -1 60 -16 15 -16 -15 0 -38 -11 -53 -25 l-25 -24 -250 80
c-138 44 -420 134 -628 200 -208 66 -389 125 -402 131 -67 30 -22 87 47 59z
m8568 -21 c0 -5 -4 -10 -10 -10 -5 0 -10 5 -10 10 0 6 5 10 10 10 6 0 10 -4
10 -10z m-5376 -6 c10 -4 16 -18 16 -35 0 -34 24 -39 40 -9 6 11 20 20 30 20
16 0 20 -7 20 -30 0 -36 3 -37 44 -5 61 47 86 24 45 -41 -15 -26 -28 -34 -49
-34 -15 0 -33 -7 -40 -15 -21 -26 -43 -17 -98 40 -52 56 -62 81 -40 103 14 14
12 14 32 6z m5496 -14 c0 -5 -2 -10 -4 -10 -3 0 -8 5 -11 10 -3 6 -1 10 4 10
6 0 11 -4 11 -10z m-6019 -20 c22 -12 24 -37 5 -62 -15 -20 -33 -23 -55 -9
-13 8 -12 15 4 45 22 41 20 39 46 26z m4166 -12 c-3 -8 -6 -5 -6 6 -1 11 2 17
5 13 3 -3 4 -12 1 -19z m-31 -130 c-8 -18 -22 -50 -30 -71 -22 -55 -36 -37
-36 46 0 82 4 90 45 104 28 9 30 8 33 -18 2 -16 -4 -43 -12 -61z m-3858 57 c7
-14 12 -32 12 -40 0 -21 -34 -18 -54 4 -14 15 -15 24 -6 40 15 28 34 26 48 -4z
m-93 -14 c3 -5 1 -12 -5 -16 -5 -3 -10 1 -10 9 0 18 6 21 15 7z m338 -41 c18
-46 11 -50 -27 -15 -23 21 -26 28 -16 40 19 23 26 19 43 -25z m155 -63 c2 -12
-1 -15 -12 -11 -19 7 -22 38 -3 32 6 -3 13 -12 15 -21z m-1988 -115 c0 -4 -9
-8 -20 -9 -11 -1 -20 2 -20 5 0 4 9 8 20 9 11 1 20 -2 20 -5z m5378 -27 c0
-14 -4 -25 -9 -25 -5 0 -9 11 -9 25 0 14 4 25 9 25 5 0 9 -11 9 -25z m-5424
-31 c-7 -3 -10 -15 -7 -27 4 -20 3 -20 -7 -4 -12 19 -6 37 13 36 9 0 9 -2 1
-5z m1376 -113 c0 -3 -13 17 -29 44 -16 28 -26 54 -23 59 5 8 52 -86 52 -103z
m-90 34 c0 -5 -5 -3 -10 5 -5 8 -10 20 -10 25 0 6 5 3 10 -5 5 -8 10 -19 10
-25z m4110 -6 c0 -14 -5 -19 -17 -17 -26 5 -29 38 -4 38 15 0 21 -6 21 -21z
m-3970 -79 c0 -5 -5 -10 -11 -10 -5 0 -7 5 -4 10 3 6 8 10 11 10 2 0 4 -4 4
-10z m4913 -77 c10 -74 16 -115 22 -154 6 -37 -6 -56 -35 -57 -8 0 -35 -7 -60
-15 -124 -43 -236 -63 -410 -73 -75 -4 -82 8 -10 20 19 3 76 13 125 22 50 8
110 19 134 22 61 10 68 25 52 114 -23 122 -25 150 -10 159 8 5 53 9 100 9 l86
0 6 -47z m-9006 -85 c-2 -13 -4 -5 -4 17 -1 22 1 32 4 23 2 -10 2 -28 0 -40z
m4353 48 c0 -3 -4 -8 -10 -11 -5 -3 -10 -1 -10 4 0 6 5 11 10 11 6 0 10 -2 10
-4z m-220 -36 c-18 -11 -22 -7 -14 14 5 13 10 14 18 6 8 -8 7 -13 -4 -20z
m-4129 -71 c-9 -22 -10 -22 -10 -3 -1 11 2 24 6 27 12 12 14 0 4 -24z m4158
-14 c6 -3 11 1 11 9 0 9 -4 16 -10 16 -5 0 -10 4 -10 8 0 5 29 10 64 11 58 2
65 0 71 -19 10 -32 -2 -36 -24 -9 -16 20 -23 22 -38 13 -26 -16 -28 -42 -4
-63 25 -21 27 -41 6 -41 -8 0 -15 7 -15 15 0 9 -10 15 -22 16 -13 0 -31 2 -40
4 -9 2 -19 -4 -22 -12 -3 -7 -2 -12 3 -9 5 3 27 -8 50 -24 49 -36 54 -36 92
-9 43 30 81 34 112 9 30 -24 26 -50 -9 -50 -32 0 -74 -19 -106 -49 -26 -23
-30 -23 -65 -12 -21 7 -42 12 -48 12 -13 0 -44 59 -45 86 0 12 -9 28 -20 36
-18 13 -19 16 -5 27 8 7 15 18 15 24 0 6 8 22 17 35 16 24 17 24 24 4 4 -12
12 -24 18 -28z m-1608 3 c0 -13 4 -49 8 -80 4 -32 4 -58 0 -58 -4 0 -10 -14
-14 -30 -5 -25 3 -49 45 -128 29 -53 58 -104 66 -113 20 -23 17 -29 -12 -29
-42 0 -184 42 -184 54 0 6 15 56 32 111 20 61 31 118 30 145 -3 65 8 150 19
150 5 0 9 -10 10 -22z m62 -85 c5 -59 3 -73 -8 -73 -20 0 -29 60 -15 109 6 24
13 41 14 40 2 -2 6 -37 9 -76z m-2594 -30 c1 -17 -3 -35 -9 -38 -5 -3 -10 -3
-11 2 0 4 -2 22 -4 38 -3 17 -2 39 2 50 l6 20 8 -20 c4 -11 8 -34 8 -52z
m7165 31 c20 -8 21 -28 1 -44 -12 -10 -15 -10 -15 3 0 8 -3 22 -6 31 -7 18 -4
19 20 10z m836 -30 c15 -38 12 -46 -12 -42 -18 2 -23 -2 -21 -18 1 -11 -11
-36 -26 -55 -28 -33 -31 -34 -99 -33 -43 0 -83 7 -106 18 -28 13 -40 14 -56 6
-15 -8 -36 -8 -73 -1 -29 6 -89 11 -134 13 -71 2 -85 -1 -105 -19 -29 -26
-155 -86 -170 -81 -12 4 -47 101 -48 132 0 18 32 49 74 73 17 9 28 7 61 -10
35 -18 59 -20 195 -21 127 0 164 3 205 18 62 23 222 33 253 17 19 -10 22 -9
22 9 0 29 29 25 40 -6z m-3920 -24 c0 -5 -7 -10 -16 -10 -8 0 -12 5 -9 10 3 6
10 10 16 10 5 0 9 -4 9 -10z m-3012 -94 c11 -24 30 -31 121 -42 24 -3 54 -11
65 -19 12 -7 39 -16 61 -20 54 -9 73 -27 67 -66 -5 -31 -5 -31 -51 -24 -25 4
-58 13 -73 21 -15 8 -33 14 -41 14 -23 0 -50 26 -51 51 -1 31 -31 37 -39 9 -6
-24 -24 -22 -87 10 -27 13 -34 23 -32 40 5 50 42 66 60 26z m3095 -22 c4 -7
19 -15 35 -18 25 -6 27 -10 25 -48 0 -24 7 -58 16 -78 15 -29 19 -67 12 -101
0 -4 -11 -10 -23 -14 -13 -3 -18 -9 -11 -11 15 -7 5 -34 -12 -34 -7 0 -17 -12
-23 -27 -5 -16 -21 -41 -36 -56 -43 -46 -37 -53 28 -37 33 7 42 6 52 -8 11
-15 7 -23 -27 -55 -22 -21 -44 -35 -49 -32 -13 8 -71 -27 -67 -40 2 -5 12 -12
23 -14 18 -3 97 -53 120 -76 24 -24 34 -58 43 -150 5 -63 13 -100 22 -106 8
-5 53 -7 100 -4 71 4 88 2 93 -10 3 -8 13 -15 22 -15 25 0 94 -22 94 -30 0 -4
-16 -10 -36 -13 -43 -7 -64 -23 -64 -48 0 -11 -17 -30 -42 -46 -24 -14 -55
-38 -70 -53 -41 -42 -83 -56 -115 -39 -17 9 -56 14 -117 13 -131 -2 -138 -3
-132 -13 4 -5 -4 -7 -16 -4 -19 4 -21 3 -8 -7 13 -10 12 -11 -5 -5 -11 4 -40
11 -65 16 -31 6 -57 21 -85 48 -22 21 -53 46 -70 55 l-30 16 45 -5 c25 -2 72
-7 105 -10 33 -3 72 -11 88 -17 21 -8 37 -7 70 5 23 9 70 23 104 32 71 17 136
52 130 68 -2 7 -14 14 -28 17 -20 5 -24 13 -27 50 -2 25 -8 51 -14 58 -8 9 -8
16 0 24 22 22 13 66 -19 103 -17 19 -35 33 -39 30 -4 -3 -11 2 -14 11 -3 8
-10 13 -15 9 -6 -3 -8 -12 -5 -19 10 -27 -78 -40 -168 -25 l-73 12 -31 -29
c-17 -16 -44 -39 -59 -52 -27 -23 -27 -23 -4 -18 13 3 48 8 77 11 l54 6 -7
-43 c-6 -39 -39 -89 -72 -111 -7 -4 -13 -14 -13 -22 0 -8 -18 -20 -41 -26 -34
-11 -42 -10 -50 2 -13 19 -5 162 10 167 6 2 9 8 5 13 -3 5 8 44 24 87 16 42
38 124 48 182 20 116 14 108 135 212 79 69 131 164 150 275 10 58 15 70 28 65
9 -3 19 -11 24 -18z m172 0 c1 -12 -2 -31 -7 -43 -6 -18 -14 -22 -45 -19 -47
4 -50 17 -13 57 34 35 62 38 65 5z m-4325 -81 c0 -12 -4 -25 -10 -28 -6 -4
-10 11 -10 37 0 31 3 39 10 28 5 -8 10 -25 10 -37z m1438 30 c-4 -22 -38 -30
-38 -10 0 14 13 24 33 26 5 1 7 -7 5 -16z m7850 0 c22 -5 72 -56 72 -74 0 -19
-30 -69 -48 -78 -9 -5 -47 -12 -84 -16 -85 -9 -92 9 -10 23 74 13 111 28 118
47 8 20 -19 50 -59 66 -18 7 -38 17 -44 22 -17 13 -5 30 16 21 9 -3 26 -9 39
-11z m-1883 -3 c35 -13 25 -26 -33 -44 -26 -7 -63 -23 -82 -34 -60 -34 -79
-37 -89 -10 -12 30 -5 36 59 48 30 6 62 19 72 30 21 23 35 24 73 10z m1466
-16 c-29 -37 -10 -65 73 -109 11 -5 20 -21 22 -35 3 -24 3 -24 -8 -3 -6 13
-27 26 -55 33 -48 14 -73 41 -73 79 0 28 26 61 47 61 11 0 9 -7 -6 -26z
m-7367 -53 c17 -10 63 -28 103 -40 81 -25 97 -38 87 -75 -5 -20 -12 -26 -34
-26 -16 0 -41 6 -57 14 -15 8 -59 21 -98 30 -70 17 -104 41 -85 60 5 5 10 18
10 27 0 16 12 26 34 28 5 1 23 -7 40 -18z m3938 -19 c9 -9 -11 -92 -23 -92 -3
0 -6 -20 -6 -45 0 -25 -5 -51 -11 -57 -7 -7 -12 -22 -12 -35 0 -27 -30 -31
-54 -7 -18 17 -13 34 9 34 11 0 14 10 10 40 -4 32 -2 41 15 50 28 15 25 25
-13 49 -27 16 -34 27 -34 52 l0 31 55 -5 c30 -3 59 -10 64 -15z m1895 -364
c-261 -462 -257 -455 -257 -444 0 9 203 378 248 449 13 22 43 76 66 120 24 45
53 99 65 120 11 20 33 61 47 90 15 28 29 47 31 40 3 -7 -88 -175 -200 -375z
m-4907 281 c13 -23 -2 -49 -26 -49 -17 0 -18 24 -4 51 13 24 17 24 30 -2z
m-585 -16 c17 -3 39 -13 50 -23 11 -10 38 -21 60 -24 50 -8 95 -26 96 -37 3
-34 2 -67 -4 -76 -8 -13 -64 2 -160 43 -162 68 -156 63 -135 109 10 22 16 25
37 20 15 -3 40 -9 56 -12z m7126 -130 c0 -50 -5 -101 -10 -114 -6 -16 -8 6 -6
71 4 135 4 144 11 138 3 -3 5 -46 5 -95z m-8961 -8 c0 -18 9 -61 20 -95 11
-35 18 -66 15 -68 -13 -13 -34 28 -54 101 -26 97 -26 107 -1 100 15 -4 20 -14
20 -38z m5210 35 c-20 -13 -33 -13 -25 0 3 6 14 10 23 10 15 0 15 -2 2 -10z
m-3056 -6 c8 -3 20 -21 26 -40 9 -27 17 -34 36 -34 21 0 25 -4 22 -22 -2 -17
-9 -22 -23 -20 -11 2 -36 6 -55 8 -44 6 -80 24 -80 39 0 7 7 26 16 43 15 32
28 37 58 26z m5386 -9 c0 -8 -13 -36 -29 -62 -15 -27 -97 -174 -181 -328 -85
-154 -160 -289 -168 -300 -13 -18 -13 -17 -8 15 4 19 8 46 9 60 2 14 8 24 15
23 6 -2 21 15 32 37 23 44 25 54 9 44 -6 -3 -3 8 5 25 9 17 19 31 22 31 2 0 0
-9 -6 -21 -7 -11 -10 -23 -7 -25 4 -4 58 92 270 479 21 38 37 48 37 22z m50 0
c0 -8 4 -23 10 -33 5 -9 46 -159 90 -332 45 -173 92 -353 105 -400 13 -47 33
-122 44 -167 l21 -81 -29 -64 c-16 -34 -59 -126 -96 -203 -37 -77 -89 -185
-115 -240 -26 -55 -78 -163 -115 -240 l-68 -140 -18 60 c-9 33 -52 188 -94
345 -42 157 -80 299 -85 315 -40 129 -90 339 -85 362 4 23 4 24 -4 8 -9 -19
-10 -19 -10 4 -1 13 12 48 28 77 17 28 27 55 24 58 -4 3 -2 6 3 6 6 0 93 153
195 340 101 186 187 339 192 340 4 0 7 -7 7 -15z m1510 -20 c0 -8 -4 -15 -10
-15 -5 0 -10 7 -10 15 0 8 5 15 10 15 6 0 10 -7 10 -15z m191 5 c10 -6 19 -19
19 -30 0 -10 5 -22 10 -25 15 -9 12 -46 -5 -59 -8 -6 -21 -45 -30 -86 -23
-114 -25 -121 -34 -116 -8 5 -42 -91 -57 -159 -3 -16 -15 -55 -26 -85 -11 -30
-23 -90 -26 -132 l-7 -78 -32 20 c-24 14 -33 28 -35 47 -2 42 -3 47 -11 60 -4
7 -3 23 4 35 7 12 11 39 11 59 -1 22 4 42 13 49 9 8 13 21 10 32 -10 29 13 85
38 93 l22 8 -22 4 c-34 7 -46 28 -38 70 5 32 10 38 32 40 32 1 49 19 58 59 5
26 2 35 -20 52 -22 18 -25 27 -21 61 5 46 13 64 27 56 5 -4 21 3 35 14 29 23
55 26 85 11z m-6891 -55 c24 -39 25 -52 4 -94 -17 -35 -12 -54 9 -30 25 31 99
66 82 40 -7 -12 11 -23 44 -27 16 -2 35 5 48 18 20 19 78 30 151 29 12 -1 25
6 28 14 8 20 22 19 27 -2 2 -13 8 -8 22 20 18 36 55 52 55 24 0 -6 14 -25 30
-40 17 -16 28 -33 24 -38 -3 -5 2 -9 11 -9 14 0 14 -4 0 -36 -18 -43 -18 -47
-4 -38 6 3 17 20 25 38 l15 31 -6 -32 c-4 -21 -3 -33 4 -33 6 0 11 -7 11 -15
0 -8 5 -15 10 -15 6 0 10 8 10 17 0 9 3 14 6 11 3 -4 1 -23 -5 -43 -9 -33 -8
-38 10 -42 10 -3 19 -9 19 -14 0 -5 7 -9 16 -9 11 0 14 -6 9 -21 -5 -15 -2
-22 14 -26 11 -3 19 -9 16 -13 -8 -12 55 -69 71 -63 10 3 12 0 9 -10 -4 -8 1
-17 9 -20 9 -4 16 -14 16 -23 0 -9 13 -32 30 -50 47 -54 32 -70 -76 -80 -66
-7 -240 4 -230 13 8 9 -26 32 -46 33 -10 0 -18 4 -18 8 0 5 -18 15 -40 22 -22
7 -40 17 -40 22 0 5 -11 13 -25 18 -38 14 -130 85 -153 117 -34 49 -36 69 -7
91 42 33 45 33 -140 17 -38 -3 -81 -8 -95 -11 -19 -3 -22 -2 -10 6 8 5 24 10
34 10 11 0 16 3 12 8 -4 4 -82 7 -172 8 -97 0 -169 5 -175 11 -12 12 85 23
204 23 66 0 77 2 78 18 1 15 2 15 6 1 2 -10 14 -20 26 -23 27 -7 77 -7 59 1
-6 2 -10 9 -6 14 3 5 1 9 -5 9 -5 0 -13 9 -16 20 -4 11 -11 18 -16 15 -5 -4
-9 -1 -9 4 0 6 -11 11 -25 11 -20 0 -25 -5 -25 -25 0 -14 -5 -25 -11 -25 -7 0
-9 9 -6 23 39 163 50 189 72 181 8 -3 24 -21 35 -39z m115 -15 c0 -20 -6 -26
-27 -28 -31 -4 -38 17 -15 43 18 22 42 13 42 -15z m1255 -127 c-6 -37 -21 -88
-32 -113 -45 -101 -58 -153 -58 -237 0 -63 -3 -83 -13 -83 -20 0 -87 68 -87
88 0 28 28 175 38 202 5 14 13 47 16 74 8 50 19 66 96 128 46 38 55 25 40 -59z
m5660 70 c0 -17 -18 -35 -29 -29 -8 5 -7 11 2 21 13 16 27 19 27 8z m-8028
-153 c54 -15 60 -59 8 -60 -25 0 -60 30 -60 51 0 22 2 22 52 9z m1624 -17
c-10 -10 -19 5 -10 18 6 11 8 11 12 0 2 -7 1 -15 -2 -18z m6469 9 c-3 -3 -11
0 -18 7 -9 10 -8 11 6 5 10 -3 15 -9 12 -12z m-7203 -43 c-11 -11 -30 -29 -41
-40 -24 -22 -29 -9 -6 15 13 13 13 16 -7 23 -23 7 -20 9 66 22 6 0 0 -8 -12
-20z m204 -7 c-18 -16 -18 -16 -6 6 6 13 14 21 18 18 3 -4 -2 -14 -12 -24z
m6517 12 c9 -9 -4 -35 -14 -28 -5 3 -9 12 -9 20 0 14 12 19 23 8z m472 -4 c3
-5 1 -10 -4 -10 -6 0 -11 5 -11 10 0 6 2 10 4 10 3 0 8 -4 11 -10z m-7035 -24
c0 -2 -8 -10 -17 -17 -16 -13 -17 -12 -4 4 13 16 21 21 21 13z m6440 -231 c0
-99 -9 -214 -18 -232 -5 -10 -12 -34 -16 -54 -8 -47 -27 -64 -55 -49 -26 13
-26 30 -2 78 10 20 28 69 40 109 12 40 26 75 31 78 9 6 7 124 -4 180 -3 17 1
10 9 -15 8 -24 15 -67 15 -95z m357 98 c15 -10 49 -23 77 -29 30 -6 50 -15 48
-22 -1 -7 10 -17 25 -23 26 -10 43 -26 43 -41 0 -14 -74 -39 -97 -33 -24 6
-32 38 -13 50 16 10 12 28 -5 21 -9 -3 -38 3 -65 13 -48 18 -61 16 -39 -6 7
-7 4 -12 -12 -16 -20 -5 -21 -3 -15 39 6 45 12 64 22 64 3 0 17 -8 31 -17z
m-217 -35 c0 -18 -2 -20 -9 -8 -6 8 -7 18 -5 22 9 14 14 9 14 -14z m-7220
-120 c0 -35 -10 -45 -43 -40 -18 2 -37 10 -43 18 -12 15 -44 9 -44 -7 0 -12
-47 -11 -71 1 -10 6 -19 18 -19 27 0 12 7 14 28 10 15 -3 45 -2 67 3 67 13
125 8 125 -12z m4570 -43 c0 -14 -6 -25 -13 -25 -20 0 -25 9 -20 31 8 28 33
24 33 -6z m2652 -27 c-15 -15 -26 -4 -18 18 5 13 9 15 18 6 9 -9 9 -15 0 -24z
m-4092 -12 c41 -13 89 -27 105 -31 40 -11 33 -9 170 -50 276 -83 268 -82 311
-62 19 9 42 17 52 17 15 -1 15 -3 -3 -16 -11 -9 -35 -22 -52 -30 -29 -12 -33
-19 -33 -52 0 -20 -3 -48 -7 -61 -9 -36 16 -17 33 25 12 28 20 34 44 34 19 0
30 -5 30 -13 0 -28 -126 -177 -149 -177 -14 0 -10 -43 7 -62 8 -9 11 -22 7
-28 -9 -15 -53 -31 -94 -35 -51 -4 -58 -24 -35 -101 4 -16 -2 -29 -23 -48 -23
-22 -26 -29 -16 -45 7 -10 9 -22 6 -25 -4 -3 -7 -17 -9 -30 -2 -23 -38 -83
-58 -97 -5 -4 -8 -28 -8 -53 1 -35 -2 -46 -14 -46 -8 0 -18 -8 -21 -17 -4 -10
-13 -24 -20 -31 -7 -7 -13 -34 -13 -58 0 -42 -2 -45 -22 -39 -45 14 -202 105
-180 105 7 0 28 33 47 73 19 39 44 88 55 107 19 34 16 49 -11 54 -26 5 -104
27 -183 52 -44 14 -92 26 -108 26 -15 1 -28 5 -28 10 0 4 -3 7 -7 6 -5 -1 -36
7 -70 18 l-62 19 6 42 6 43 -47 20 c-46 21 -46 21 -46 70 0 38 -5 54 -22 70
-12 11 -17 20 -10 20 6 0 13 -4 17 -9 3 -6 13 -10 23 -10 81 0 164 -11 177
-24 11 -12 12 -16 2 -20 -6 -2 6 -12 27 -21 38 -16 40 -16 61 4 20 19 23 19
35 5 8 -9 20 -13 29 -9 14 6 38 11 66 13 21 2 -15 19 -100 46 -98 32 -134 53
-113 67 23 14 80 9 162 -16 45 -13 110 -31 146 -41 36 -9 91 -26 124 -36 32
-10 63 -16 68 -13 4 3 22 33 38 67 16 34 53 95 81 135 28 41 47 77 43 81 -5 4
-36 16 -69 25 -33 10 -78 24 -100 31 -41 13 -95 29 -224 66 -69 21 -111 46
-111 69 0 14 6 13 90 -14z m1410 -71 c0 -8 -4 -15 -10 -15 -5 0 -10 7 -10 15
0 8 5 15 10 15 6 0 10 -7 10 -15z m-2293 -72 c-7 -7 -87 19 -87 28 0 4 20 1
46 -8 25 -8 43 -17 41 -20z m4950 15 c-3 -8 -6 -5 -6 6 -1 11 2 17 5 13 3 -3
4 -12 1 -19z m-2667 -17 c0 -23 -16 -36 -25 -21 -9 14 1 40 15 40 5 0 10 -9
10 -19z m2620 4 c11 -13 8 -15 -18 -15 -31 0 -47 11 -35 24 11 11 40 6 53 -9z
m70 -37 c0 -4 -4 -10 -10 -13 -5 -3 -10 -17 -10 -31 0 -15 -6 -24 -15 -24 -9
0 -15 -9 -15 -25 0 -22 -4 -25 -34 -25 -39 0 -58 19 -60 59 -1 16 -4 27 -8 24
-5 -2 -8 3 -8 12 0 9 5 13 10 10 6 -3 13 0 16 8 4 11 22 14 70 13 35 0 64 -4
64 -8z m-7790 -65 c90 -30 176 -61 190 -68 25 -14 25 -14 -12 -15 -21 0 -38
-4 -38 -10 0 -5 7 -10 15 -10 8 0 15 -4 15 -10 0 -5 9 -10 19 -10 11 0 21 -4
23 -10 2 -5 13 -7 26 -4 29 8 30 44 0 44 -12 0 -19 3 -15 6 8 8 151 -29 244
-63 59 -22 75 -33 92 -63 11 -19 31 -46 45 -59 14 -13 28 -39 32 -57 3 -18 11
-38 18 -43 6 -5 84 -34 174 -64 89 -31 157 -57 150 -60 -7 -2 -32 3 -55 10
-24 8 -48 13 -55 10 -7 -2 3 -9 22 -16 33 -10 31 -10 -20 -5 -30 3 -60 10 -67
16 -9 7 -13 7 -13 0 0 -9 87 -44 170 -68 32 -10 37 -11 88 -12 26 -1 41 -6 37
-12 -3 -6 4 -10 17 -10 13 0 41 -9 62 -20 22 -10 43 -17 47 -14 4 2 68 -13
141 -35 74 -22 153 -43 176 -47 23 -4 45 -11 48 -16 3 -5 -5 -7 -18 -4 -640
137 -975 242 -1513 473 -113 49 -195 91 -195 101 1 4 17 20 38 35 25 19 44 26
59 22 16 -4 23 -1 23 9 0 22 -29 46 -55 46 -13 0 -30 7 -38 15 -8 8 -28 17
-45 20 -39 7 -98 -32 -95 -63 2 -12 -2 -22 -7 -22 -6 0 -10 7 -10 16 0 18 40
95 55 106 6 5 5 8 -2 8 -7 0 -13 5 -13 11 0 17 56 4 240 -58z m5090 8 c0 -12
-20 -25 -27 -18 -7 7 6 27 18 27 5 0 9 -4 9 -9z m-5895 -88 c-10 -26 -24 -55
-32 -63 -11 -12 -13 -10 -14 13 -1 15 -2 33 -3 40 -1 6 7 11 17 10 13 -1 17 4
14 17 -6 24 12 55 25 42 7 -7 5 -26 -7 -59z m5520 21 c28 -9 62 -13 83 -10 48
8 176 -25 180 -46 2 -9 -24 -32 -69 -61 -39 -26 -75 -47 -79 -47 -4 0 -13 14
-20 30 -7 17 -32 42 -55 58 -23 15 -46 36 -51 47 -5 11 -20 21 -34 23 -49 5
-68 12 -73 26 -6 15 35 9 118 -20z m-5011 -11 c-3 -13 9 -24 46 -42 27 -14 50
-29 50 -33 0 -12 -8 -10 -35 8 -14 9 -41 22 -60 28 -33 12 -34 13 -19 34 18
27 24 28 18 5z m7983 1 c46 -18 55 -37 23 -54 -12 -6 -17 -16 -13 -27 4 -11 2
-14 -8 -11 -8 3 -18 20 -24 40 -5 19 -16 43 -24 52 -17 20 -8 20 46 0z m-79
-82 c2 -12 -1 -22 -7 -22 -13 0 -32 35 -24 44 12 12 28 0 31 -22z m-2388 3 c0
-8 -6 -15 -12 -15 -10 0 -10 -2 0 -8 15 -10 -16 -41 -65 -66 -47 -24 -60 -20
-32 11 19 21 21 25 6 20 -11 -4 -31 -10 -45 -13 l-27 -6 20 20 c24 25 113 71
138 72 9 0 17 -7 17 -15z m2440 -40 c0 -9 -7 -18 -16 -22 -18 -7 -39 11 -30
26 11 17 46 13 46 -4z m-792 -77 c4 -21 -24 -24 -62 -7 -35 16 -22 31 22 27
26 -2 38 -8 40 -20z m-958 2 c0 -5 -4 -10 -9 -10 -6 0 -13 5 -16 10 -3 6 1 10
9 10 9 0 16 -4 16 -10z m1043 -29 c5 -22 -19 -33 -53 -24 -23 6 -25 14 -8 31
19 19 55 15 61 -7z m-113 -22 c0 -36 -139 -338 -169 -368 -21 -21 -37 -28 -27
-13 2 4 -2 16 -10 27 -18 25 -19 24 -75 -105 -23 -52 -55 -122 -71 -155 -27
-57 -28 -61 -11 -73 17 -13 17 -14 -2 -8 -17 5 -23 -1 -34 -29 -7 -19 -9 -39
-6 -45 3 -5 0 -10 -7 -10 -31 0 -143 22 -159 31 -26 13 -14 37 16 31 21 -4 24
-1 22 25 -2 29 91 246 102 239 3 -2 7 6 7 17 1 12 33 86 72 165 l70 142 1 -57
c0 -43 -2 -54 -10 -43 -9 13 -10 13 -6 0 2 -8 12 -14 21 -12 13 2 16 -2 13
-15 -3 -10 -8 -34 -11 -53 -5 -27 -4 -30 3 -14 5 12 14 25 20 28 6 4 3 -10 -5
-30 -8 -19 -10 -33 -5 -29 6 3 11 12 11 20 0 7 7 15 15 19 8 3 15 12 15 21 0
8 25 64 55 124 30 60 55 113 55 117 0 5 9 24 20 42 16 26 26 32 55 32 29 0 35
-4 35 -21z m345 -24 c0 -17 -6 -20 -40 -17 -50 4 -55 10 -30 28 28 21 70 14
70 -11z m-604 -82 c-12 -20 -14 -14 -5 12 4 9 9 14 11 11 3 -2 0 -13 -6 -23z
m559 17 c0 -12 -8 -12 -35 0 -18 8 -17 9 8 9 15 1 27 -3 27 -9z m-122 -47 c2
-8 -6 -13 -21 -13 -32 0 -57 9 -57 22 0 14 73 5 78 -9z m312 7 c0 -5 -4 -10
-10 -10 -5 0 -10 5 -10 10 0 6 5 10 10 10 6 0 10 -4 10 -10z m-470 -10 c0 -5
-5 -10 -11 -10 -5 0 -7 5 -4 10 3 6 8 10 11 10 2 0 4 -4 4 -10z m1472 -73
c-24 -7 -36 -7 -41 1 -3 6 -28 14 -55 19 -64 11 -72 31 -14 35 30 2 58 -4 93
-21 l50 -24 -33 -10z m-1328 33 c17 -16 -6 -31 -37 -25 -59 12 -66 16 -60 31
4 12 15 14 47 9 22 -4 45 -11 50 -15z m122 -3 c4 -3 3 -11 -1 -17 -5 -8 -21
-10 -48 -6 -48 8 -59 14 -51 28 6 10 89 6 100 -5z m769 -1 c42 -18 45 -33 8
-42 -16 -3 -41 -11 -58 -17 -16 -7 -33 -12 -36 -12 -4 0 -25 -12 -48 -27 -23
-15 -41 -25 -41 -22 0 11 55 80 84 107 35 31 44 32 91 13z m-8148 -38 c-3 -7
-5 -2 -5 12 0 14 2 19 5 13 2 -7 2 -19 0 -25z m7096 25 c-7 -2 -19 -2 -25 0
-7 3 -2 5 12 5 14 0 19 -2 13 -5z m1362 -13 c-3 -5 -13 -10 -21 -10 -8 0 -14
5 -14 10 0 6 9 10 21 10 11 0 17 -4 14 -10z m-6982 -33 c67 -19 167 -44 222
-57 171 -40 184 -44 154 -48 -15 -2 -60 6 -100 17 -41 10 -119 31 -174 45
-124 32 -235 66 -235 72 0 7 7 5 133 -29z m5836 22 c104 0 140 -4 182 -20 30
-10 55 -19 56 -19 2 0 3 -4 3 -9 0 -5 -13 -4 -30 2 -37 14 -55 0 -55 -46 0
-27 -4 -32 -33 -38 -41 -8 -54 -20 -68 -62 -12 -35 -41 -47 -58 -26 -25 32
-50 42 -116 48 -39 4 -70 5 -70 3 0 -1 15 -9 33 -17 l32 -15 -42 6 c-42 6 -43
6 -58 -30 -16 -37 -22 -41 -49 -30 -21 8 -20 30 2 52 10 10 21 26 25 35 3 9
16 17 28 17 21 0 22 1 4 20 -18 19 -17 20 14 26 33 7 53 24 28 24 -8 0 -18 7
-21 16 -5 14 1 15 44 12 56 -3 67 7 18 17 -44 10 -48 13 -41 31 3 9 12 12 24
9 11 -4 78 -6 148 -6z m-999 -8 c0 -13 -29 -35 -37 -28 -7 8 15 37 28 37 5 0
9 -4 9 -9z m765 -21 c3 -5 -1 -10 -9 -10 -9 0 -16 5 -16 10 0 6 4 10 9 10 6 0
13 -4 16 -10z m-20 -50 c3 -5 -3 -10 -14 -10 -12 0 -21 5 -21 10 0 6 6 10 14
10 8 0 18 -4 21 -10z m-3200 -100 c45 -32 53 -41 32 -36 -26 6 -41 17 -94 68
-12 12 -28 18 -37 15 -10 -4 -13 -1 -9 9 3 7 0 14 -6 14 -6 0 -11 8 -11 17 0
13 7 10 33 -14 17 -17 59 -50 92 -73z m2475 66 c-14 -14 -24 0 -16 21 6 15 8
15 16 3 6 -9 5 -19 0 -24z m-4409 -41 c-22 -24 -41 -51 -41 -60 0 -8 -9 -15
-20 -15 -17 0 -19 4 -14 28 9 34 21 51 59 74 52 31 59 20 16 -27z m5109 25 c0
-5 -5 -10 -11 -10 -5 0 -7 5 -4 10 3 6 8 10 11 10 2 0 4 -4 4 -10z m-1516 -56
c23 -9 20 -24 -4 -24 -11 0 -20 7 -20 15 0 17 2 18 24 9z m1483 0 c-3 -3 -12
-4 -19 -1 -8 3 -5 6 6 6 11 1 17 -2 13 -5z m-1230 -30 c-3 -3 -12 -4 -19 -1
-8 3 -5 6 6 6 11 1 17 -2 13 -5z m-1832 -14 c3 -5 1 -10 -4 -10 -6 0 -11 5
-11 10 0 6 2 10 4 10 3 0 8 -4 11 -10z m2432 -22 c-3 -8 -6 -5 -6 6 -1 11 2
17 5 13 3 -3 4 -12 1 -19z m623 10 c0 -4 -9 -8 -21 -8 -11 0 -18 4 -15 8 3 5
12 9 21 9 8 0 15 -4 15 -9z m-130 -2 c0 -3 -4 -8 -10 -11 -5 -3 -10 -1 -10 4
0 6 5 11 10 11 6 0 10 -2 10 -4z m178 -51 c-9 -9 -30 14 -23 25 6 9 10 8 17
-4 6 -10 8 -19 6 -21z m-84 9 c24 -9 10 -22 -19 -17 -13 3 -22 9 -19 14 6 11
16 11 38 3z m-572 -32 c-6 -2 -10 -8 -6 -13 3 -5 1 -9 -4 -9 -10 0 -22 23 -22
41 0 5 10 4 22 -2 14 -8 18 -14 10 -17z m-616 -4 c-3 -13 -6 -30 -7 -38 0 -8
-7 -1 -14 15 -15 33 -12 45 12 45 11 0 14 -6 9 -22z m1330 -15 c-4 -9 5 -13
27 -13 l31 0 -23 -16 c-16 -12 -25 -13 -30 -6 -4 6 -30 16 -59 22 -29 7 -52
13 -52 15 0 26 13 31 61 21 34 -7 48 -14 45 -23z m118 7 c2 -3 -20 -3 -50 -2
-49 4 -63 10 -49 24 5 5 90 -14 99 -22z m-288 -15 c17 -17 7 -19 -35 -8 -23 6
-23 7 -5 14 10 4 20 8 22 8 2 1 10 -6 18 -14z m-576 -3 c0 -13 -12 -22 -22
-16 -10 6 -1 24 13 24 5 0 9 -4 9 -8z m683 -26 c15 -4 27 -13 27 -22 0 -12 -8
-14 -37 -8 -44 8 -46 9 -49 30 -2 9 4 13 14 10 9 -2 29 -7 45 -10z m1037 -85
c0 -4 15 -14 33 -23 46 -22 153 -108 135 -108 -9 0 -19 7 -22 16 -3 8 -10 12
-16 9 -5 -3 -10 -1 -10 5 0 6 -4 9 -10 5 -8 -5 -86 37 -100 54 -3 3 -22 15
-43 26 -23 12 -35 25 -32 33 4 10 -3 12 -28 7 -29 -5 -31 -5 -14 9 18 14 18
15 -2 28 -12 7 -21 16 -21 20 0 4 29 -11 65 -33 36 -23 65 -44 65 -48z m-1177
67 c9 2 17 -2 17 -7 0 -13 -56 -15 -64 -2 -8 12 5 22 18 13 6 -3 19 -5 29 -4z
m-1523 -19 c0 -5 6 -9 14 -9 7 0 20 -7 27 -16 12 -15 11 -16 -9 -10 -16 6 -22
3 -22 -8 0 -9 8 -16 19 -16 14 0 18 -5 14 -19 -5 -20 -53 -48 -53 -31 0 6 5
10 11 10 5 0 7 4 4 10 -4 6 1 7 11 3 12 -4 15 -3 10 5 -4 7 -14 12 -22 12 -10
0 -13 7 -8 25 5 19 0 30 -17 44 l-24 20 23 -6 c12 -3 22 -9 22 -14z m1020 -36
c8 -4 18 -6 22 -5 3 1 12 -5 19 -14 9 -11 9 -18 1 -26 -9 -9 -12 -9 -12 -1 0
6 -15 14 -32 18 -46 9 -88 26 -88 36 0 8 62 2 90 -8z m-650 -3 c0 -5 -2 -10
-4 -10 -3 0 -8 5 -11 10 -3 6 -1 10 4 10 6 0 11 -4 11 -10z m807 -19 c-1 -11
-7 -17 -14 -14 -15 6 -15 6 -7 27 8 21 23 11 21 -13z m1241 -9 c5 -35 24 -43
67 -27 52 18 75 18 75 0 0 -9 9 -15 25 -15 15 0 28 -7 32 -17 4 -10 11 -21 17
-25 6 -4 0 -11 -14 -18 -25 -10 -25 -10 3 -5 15 3 27 1 27 -5 0 -5 10 -10 23
-10 12 0 30 -7 40 -14 18 -14 24 -32 7 -21 -5 3 -10 1 -10 -4 0 -6 7 -11 15
-11 8 0 15 -7 15 -16 0 -9 9 -18 21 -21 12 -3 18 -11 15 -19 -3 -8 -1 -14 4
-14 12 0 50 -37 50 -48 0 -4 11 -19 25 -34 14 -15 25 -34 25 -43 0 -17 25 -21
35 -5 10 15 23 12 29 -8 4 -13 16 -17 48 -17 36 0 42 -3 43 -23 2 -30 23 -44
48 -31 18 10 18 9 1 -15 -14 -22 -19 -24 -33 -14 -9 7 -13 8 -9 4 4 -5 3 -15
-3 -22 -6 -8 -9 -21 -5 -29 8 -22 -4 -18 -30 10 -12 14 -29 22 -37 20 -7 -3
-27 1 -43 10 l-29 15 28 0 c15 0 27 5 27 11 0 6 -8 8 -18 5 -25 -8 -88 19
-117 50 -12 13 -27 24 -34 24 -6 0 -11 7 -11 16 0 12 -6 15 -25 10 -18 -5 -25
-2 -25 8 0 7 -12 17 -27 21 -15 3 -31 11 -34 16 -3 6 -19 11 -35 13 -17 2 -30
10 -32 20 -2 9 -10 16 -19 16 -9 0 -13 6 -10 14 3 8 -1 20 -9 26 -8 7 -14 18
-14 26 0 9 -10 11 -34 7 -54 -9 -82 3 -96 39 -7 18 -20 41 -28 51 -14 16 -13
17 14 18 28 0 28 1 7 11 -31 15 -47 63 -26 83 19 20 37 15 41 -13z m-1472 -7
c18 -14 40 -25 49 -25 22 0 14 -22 -13 -36 -15 -7 -18 -14 -11 -25 6 -9 9 -10
9 -2 0 7 7 10 16 6 11 -4 12 -8 4 -13 -7 -4 -9 -16 -5 -29 13 -40 -12 -21 -52
42 -67 104 -66 135 3 82z m539 -13 c-3 -3 -11 0 -18 7 -9 10 -8 11 6 5 10 -3
15 -9 12 -12z m45 -2 c0 -5 -8 -10 -17 -10 -15 0 -16 2 -3 10 19 12 20 12 20
0z m-1160 -29 c0 -11 -6 -21 -12 -23 -7 -3 -13 -19 -14 -37 -1 -23 -12 -44
-33 -65 -17 -17 -31 -25 -31 -18 0 6 4 12 9 12 6 0 22 34 38 75 27 73 43 94
43 56z m1173 2 c-7 -2 -21 -2 -30 0 -10 3 -4 5 12 5 17 0 24 -2 18 -5z m427
-3 c8 -5 11 -10 5 -10 -5 0 -17 5 -25 10 -8 5 -10 10 -5 10 6 0 17 -5 25 -10z
m-590 -24 c14 1 32 4 40 7 30 11 70 14 70 6 0 -5 7 -9 16 -9 10 0 14 -5 10
-16 -3 -8 -2 -13 2 -10 5 3 26 -1 48 -9 34 -12 36 -14 12 -15 -15 0 -30 5 -33
10 -4 6 -14 9 -23 6 -10 -3 -55 0 -102 7 -72 10 -85 15 -88 32 -2 18 -1 18 10
4 7 -8 24 -14 38 -13z m-1270 -9 c33 -14 33 -15 8 -14 -32 2 -39 -14 -12 -28
11 -5 31 -22 46 -37 29 -30 43 -34 53 -18 3 6 12 10 20 10 9 0 4 -10 -12 -26
-24 -24 -32 -26 -82 -21 -62 6 -159 39 -192 66 -28 22 -11 35 22 16 50 -29
106 -53 139 -59 l35 -6 -38 15 c-21 8 -50 23 -64 35 -14 11 -32 20 -39 20 -17
0 -17 -1 -3 38 9 28 14 30 48 27 20 -2 52 -10 71 -18z m1467 17 c-3 -3 -12 -4
-19 -1 -8 3 -5 6 6 6 11 1 17 -2 13 -5z m-6195 -82 c62 -27 159 -68 216 -91
83 -35 103 -48 108 -68 8 -32 3 -36 -32 -22 -53 21 -85 28 -79 18 8 -12 -6
-11 -25 1 -13 9 -13 10 0 10 8 1 1 7 -17 15 -17 7 -41 11 -52 8 -12 -3 -21 -1
-21 6 0 6 -7 11 -16 11 -24 0 -85 31 -79 40 7 11 -21 20 -31 10 -5 -4 -41 8
-80 27 l-71 35 21 24 c12 13 26 24 33 24 7 0 63 -22 125 -48z m4288 23 c33
-19 21 -19 -21 0 -19 8 -27 14 -19 14 8 0 26 -6 40 -14z m600 5 c13 -8 12 -11
-5 -24 -26 -20 -44 -17 -63 12 -14 21 -13 22 19 22 19 0 41 -5 49 -10z m-5080
-10 c0 -5 -4 -10 -10 -10 -5 0 -10 5 -10 10 0 6 5 10 10 10 6 0 10 -4 10 -10z
m7700 0 c0 -5 -2 -10 -4 -10 -3 0 -8 5 -11 10 -3 6 -1 10 4 10 6 0 11 -4 11
-10z m-3130 -25 c19 -7 28 -13 20 -13 -8 0 -31 6 -50 13 -19 7 -28 13 -20 13
8 0 31 -6 50 -13z m1350 -10 c0 -8 15 -32 33 -52 19 -21 36 -45 40 -54 7 -21
145 -114 194 -130 21 -7 44 -17 50 -22 7 -5 24 -6 38 -3 23 6 25 5 16 -13 -12
-22 -15 -41 -3 -26 4 6 23 19 42 29 19 10 45 28 57 38 17 16 25 18 40 9 16 -9
15 -10 -9 -11 -28 0 -47 -17 -32 -29 20 -14 32 -48 22 -64 -7 -13 -5 -17 11
-17 13 0 19 -5 15 -14 -5 -13 30 -33 49 -28 5 1 6 -2 3 -6 -6 -10 68 -42 97
-42 9 0 17 -4 17 -8 0 -5 16 -16 36 -25 20 -10 38 -26 41 -37 4 -16 9 -18 25
-9 15 8 28 7 52 -4 17 -8 51 -21 75 -28 24 -7 39 -15 32 -17 -6 -2 -11 -10
-11 -17 0 -19 -21 -24 -45 -12 -11 6 -38 14 -60 17 -22 4 -52 11 -67 15 -22 6
-28 4 -28 -9 0 -10 15 -19 43 -26 23 -6 57 -15 76 -20 34 -9 71 -36 71 -52 0
-13 -44 -9 -65 6 -11 7 -33 16 -50 19 -90 16 -170 38 -173 47 -5 13 -87 50
-142 65 -3 1 -14 5 -25 9 -11 4 -29 11 -40 15 -11 4 -40 17 -65 29 -25 12 -50
22 -57 22 -15 0 -174 77 -187 90 -6 6 -16 10 -24 10 -32 0 -132 92 -132 121 0
9 -3 26 -7 36 -6 15 -8 13 -13 -12 l-6 -30 -13 23 c-16 30 -17 82 -2 91 7 5
10 18 6 32 -4 18 3 35 27 67 34 44 48 52 48 27z m-1217 -31 c43 -14 77 -28 74
-30 -2 -2 -41 9 -88 25 -46 16 -80 30 -74 30 5 1 45 -11 88 -25z m-4748 -12
c-3 -3 -11 0 -18 7 -9 10 -8 11 6 5 10 -3 15 -9 12 -12z m4938 -48 c43 -14 77
-28 75 -30 -2 -2 -44 10 -93 26 -50 16 -83 29 -75 30 8 0 50 -12 93 -26z
m3024 -24 c33 -26 23 -26 -19 0 -18 11 -27 20 -20 20 8 0 25 -9 39 -20z
m-1696 -11 c-27 -16 -36 -18 -42 -8 -10 17 8 29 46 29 l30 0 -34 -21z m-5870
-7 c-7 -2 -18 1 -23 6 -8 8 -4 9 13 5 13 -4 18 -8 10 -11z m6047 12 c23 -7 31
-33 10 -35 -10 0 -10 -2 0 -6 6 -2 12 -9 12 -14 0 -8 -73 -59 -85 -59 -12 0
-4 40 11 54 14 15 14 16 0 16 -9 0 -16 5 -16 10 0 14 -27 12 -33 -2 -3 -7 -6
-1 -6 15 -1 25 2 27 42 27 23 0 52 -3 65 -6z m-1558 -29 c31 -12 32 -14 10
-14 -14 0 -34 6 -44 14 -24 18 -13 18 34 0z m3190 -37 c0 -4 -7 -5 -15 -2 -8
4 -15 1 -15 -5 0 -6 -9 -3 -20 6 -34 30 -25 45 15 25 19 -9 35 -20 35 -24z
m-3110 7 c17 -9 30 -18 30 -21 0 -4 -59 23 -69 32 -10 9 13 3 39 -11z m-143
-32 c-7 -7 -57 8 -57 18 0 4 14 3 31 -3 16 -6 28 -12 26 -15z m514 -18 c19 -8
27 -14 19 -14 -14 0 -72 28 -59 29 4 0 22 -7 40 -15z m1029 6 c0 -4 -11 -6
-25 -3 -14 2 -25 6 -25 8 0 2 11 4 25 4 14 0 25 -4 25 -9z m-1464 -16 c24 -18
7 -19 -26 0 -16 9 -19 14 -9 15 8 0 24 -7 35 -15z m3034 -5 c5 8 10 11 10 5
-1 -5 -6 -18 -14 -27 -15 -20 -38 -5 -29 19 5 12 7 12 14 1 7 -11 11 -10 19 2z
m-7435 -18 c-3 -3 -11 0 -18 7 -9 10 -8 11 6 5 10 -3 15 -9 12 -12z m4933 3
c20 -9 53 -20 72 -24 30 -8 207 -60 305 -90 17 -5 46 -12 65 -16 19 -4 73 -20
119 -36 46 -16 86 -29 89 -29 3 0 3 -2 0 -5 -10 -10 -708 198 -708 211 0 8 21
4 58 -11z m362 -1 c0 -2 -9 -4 -21 -4 -11 0 -18 4 -14 10 5 8 35 3 35 -6z
m-547 -30 c15 -4 27 -10 27 -14 0 -13 -42 -5 -75 14 -27 16 -28 17 -5 11 14
-3 37 -8 53 -11z m-183 -4 c13 -8 13 -10 -2 -10 -9 0 -20 5 -23 10 -8 13 5 13
25 0z m326 -100 c19 -6 32 -15 29 -20 -5 -8 -131 23 -143 34 -8 9 76 -2 114
-14z m780 -90 c32 -12 105 -36 162 -55 138 -46 271 -98 272 -106 0 -4 -40 8
-89 26 -49 19 -162 57 -250 85 -89 29 -164 56 -167 61 -8 13 7 11 72 -11z
m-1770 -11 c37 16 54 14 54 -9 0 -18 2 -19 20 -8 16 10 24 10 41 0 12 -7 23
-11 26 -8 3 3 14 -5 23 -17 14 -17 17 -37 15 -87 -3 -57 -22 -146 -24 -112 -1
7 -5 11 -10 8 -4 -3 -23 6 -41 19 -19 14 -40 25 -47 25 -8 0 -24 7 -36 15 -13
8 -32 16 -43 18 -12 1 -34 11 -50 22 -16 10 -30 18 -32 17 -5 -5 -59 27 -71
42 -12 14 -10 15 18 10 25 -5 30 -4 26 8 -8 20 44 35 56 17 4 -7 5 -17 3 -21
-3 -4 2 -5 10 -2 21 8 20 24 -1 40 -16 12 -16 15 -3 23 9 7 19 6 27 -1 10 -8
21 -8 39 1z m-199 -55 c-3 -3 -12 -4 -19 -1 -8 3 -5 6 6 6 11 1 17 -2 13 -5z
m-3847 -38 c0 -11 -19 -15 -25 -6 -3 5 1 10 9 10 9 0 16 -2 16 -4z m6600 -21
c-18 -19 -26 -22 -37 -14 -25 22 -15 39 24 39 l36 0 -23 -25z m-6805 -44 c9
-16 -9 -20 -23 -5 -10 12 -10 14 2 14 8 0 17 -4 21 -9z m6525 -11 c8 -5 11
-10 5 -10 -5 0 -17 5 -25 10 -8 5 -10 10 -5 10 6 0 17 -5 25 -10z m-6490 -60
c0 -5 -4 -10 -9 -10 -6 0 -13 5 -16 10 -3 6 1 10 9 10 9 0 16 -4 16 -10z m407
-16 c-3 -3 -12 -4 -19 -1 -8 3 -5 6 6 6 11 1 17 -2 13 -5z m3903 -14 c70 -22
75 -31 75 -134 0 -86 -1 -91 -25 -103 -14 -7 -19 -13 -11 -13 7 0 11 -6 7 -15
-3 -8 1 -20 8 -27 11 -12 36 -92 36 -117 0 -36 -126 32 -134 71 -3 13 -7 68
-10 123 -3 55 -9 130 -12 167 -7 74 -11 71 66 48z m424 -39 c8 -13 -4 -42 -15
-35 -12 7 -12 44 0 44 6 0 12 -4 15 -9z m1456 -106 c6 3 10 -2 10 -13 0 -22
35 -62 55 -62 8 0 15 -6 15 -14 0 -12 -6 -13 -32 -4 -18 5 -49 13 -69 17 -19
4 -41 11 -47 15 -6 3 -13 3 -16 -2 -2 -4 29 -21 70 -37 40 -17 74 -33 74 -37
0 -5 7 -8 16 -8 11 0 14 -6 9 -21 -7 -20 -6 -21 15 -6 21 15 60 12 60 -4 0 -5
7 -5 17 -2 11 4 14 3 9 -5 -4 -7 -12 -12 -18 -12 -6 0 -54 -29 -107 -63 -80
-53 -127 -96 -167 -155 -2 -2 -17 -1 -34 3 -20 4 -34 15 -40 31 -6 15 -15 22
-24 18 -19 -7 -56 30 -56 57 0 11 4 28 10 38 5 10 11 34 13 54 4 37 43 96 65
96 14 1 17 31 3 31 -5 0 -11 6 -14 14 -4 10 5 12 41 8 46 -5 47 -4 30 15 -25
27 -22 43 7 43 14 0 25 4 25 9 0 6 14 5 35 0 19 -6 40 -7 45 -4z m-5892 -55
c109 -51 127 -63 130 -85 4 -30 9 -32 -160 48 -95 45 -118 60 -118 76 0 12 5
21 10 21 6 0 68 -27 138 -60z m6014 -45 c0 -5 -5 -11 -11 -13 -6 -2 -11 4 -11
13 0 9 5 15 11 13 6 -2 11 -8 11 -13z m-675 -14 c18 18 41 -2 57 -50 8 -26 12
-57 9 -70 -6 -24 -6 -24 -88 -5 -34 7 -80 50 -65 59 6 3 10 13 10 21 0 22 42
54 56 43 6 -5 15 -4 21 2z m-33 -196 c3 -8 11 -15 18 -15 17 -1 53 -50 36 -50
-9 0 -9 -3 0 -12 13 -13 15 -49 6 -85 -5 -19 -13 -22 -55 -21 -28 1 -52 5 -55
10 -3 4 -15 8 -27 8 -12 0 -30 7 -40 15 -11 7 -24 12 -31 9 -14 -5 -45 46 -39
64 12 32 64 75 100 82 61 12 80 11 87 -5z m446 -155 c0 8 2 11 5 8 10 -10 -8
-68 -21 -68 -8 0 -14 6 -14 14 0 7 -7 20 -16 27 -14 12 -14 14 3 20 10 3 24 2
31 -3 8 -7 12 -7 12 2z m-594 -55 c8 -19 -10 -40 -49 -60 -50 -25 -58 -21 -40
23 8 20 20 40 27 44 19 13 56 9 62 -7z m-6494 -36 c16 -12 27 -23 24 -26 -8
-9 -66 21 -66 34 0 18 7 16 42 -8z m6607 -13 c8 -10 8 -16 -1 -24 -10 -8 -13
-4 -14 14 -2 28 -1 29 15 10z"/>
<path d="M3305 5474 c-9 -14 -14 -32 -11 -40 6 -16 32 -19 41 -4 11 18 51 10
75 -14 22 -24 110 -62 110 -48 0 4 -25 27 -56 51 -36 28 -62 41 -74 38 -13 -3
-24 3 -35 19 -20 31 -29 30 -50 -2z"/>
<path d="M4232 5328 c5 -15 28 -23 28 -10 0 5 -7 13 -16 16 -10 4 -14 1 -12
-6z"/>
<path d="M4283 5303 c9 -2 25 -2 35 0 9 3 1 5 -18 5 -19 0 -27 -2 -17 -5z"/>
<path d="M2418 5213 c7 -3 16 -2 19 1 4 3 -2 6 -13 5 -11 0 -14 -3 -6 -6z"/>
<path d="M3790 5206 c0 -16 26 -46 41 -46 14 0 11 30 -5 46 -19 18 -36 18 -36
0z"/>
<path d="M2737 5183 c-21 -9 -36 -21 -34 -27 6 -17 98 -49 110 -37 12 12 -8
67 -27 74 -6 3 -28 -2 -49 -10z"/>
<path d="M3007 5088 c-10 -11 -16 -22 -13 -25 11 -12 68 -4 85 11 10 9 23 16
29 16 7 0 12 5 12 10 0 6 -21 10 -47 9 -34 0 -53 -6 -66 -21z"/>
<path d="M1287 4156 c-4 -10 -1 -13 9 -9 15 6 19 23 5 23 -5 0 -11 -7 -14 -14z"/>
<path d="M1905 3550 c3 -5 8 -10 11 -10 2 0 4 5 4 10 0 6 -5 10 -11 10 -5 0
-7 -4 -4 -10z"/>
<path d="M5173 5291 c-22 -19 -31 -41 -15 -41 4 0 24 5 45 11 38 10 38 11 21
30 -21 23 -23 23 -51 0z"/>
<path d="M5115 5190 c3 -5 13 -10 21 -10 8 0 14 5 14 10 0 6 -9 10 -21 10 -11
0 -17 -4 -14 -10z"/>
<path d="M5140 4239 c0 -5 5 -7 10 -4 6 3 10 8 10 11 0 2 -4 4 -10 4 -5 0 -10
-5 -10 -11z"/>
<path d="M5171 3924 c0 -11 3 -14 6 -6 3 7 2 16 -1 19 -3 4 -6 -2 -5 -13z"/>
<path d="M5230 3925 c-13 -16 -6 -35 15 -35 15 0 28 27 19 41 -8 13 -20 11
-34 -6z"/>
<path d="M6407 3894 c7 -3 9 -12 6 -20 -3 -9 2 -14 14 -14 11 0 24 -10 30 -22
6 -14 12 -18 17 -10 4 6 -2 20 -14 32 -11 11 -20 25 -20 30 0 6 -10 10 -22 9
-13 0 -18 -3 -11 -5z"/>
<path d="M8686 3131 c-17 -19 -17 -19 3 -14 12 3 21 12 21 19 0 18 -4 18 -24
-5z"/>
<path d="M8612 3110 c0 -14 2 -19 5 -12 2 6 2 18 0 25 -3 6 -5 1 -5 -13z"/>
<path d="M8727 3053 c-2 -5 -1 -19 4 -33 7 -23 7 -23 8 8 1 31 -3 40 -12 25z"/>
<path d="M8650 2981 c0 -5 3 -11 8 -13 4 -1 19 -37 33 -77 14 -41 31 -77 37
-79 7 -2 19 12 27 32 14 33 14 37 -2 54 -10 10 -33 35 -51 55 -31 36 -52 47
-52 28z"/>
<path d="M8571 2924 c0 -11 3 -14 6 -6 3 7 2 16 -1 19 -3 4 -6 -2 -5 -13z"/>
<path d="M8616 2612 c-3 -5 -2 -21 3 -34 8 -20 10 -21 16 -6 8 20 -9 56 -19
40z"/>
<path d="M4720 3339 c0 -5 5 -7 10 -4 6 3 10 8 10 11 0 2 -4 4 -10 4 -5 0 -10
-5 -10 -11z"/>
<path d="M6550 2597 c0 -13 -6 -29 -12 -36 -11 -10 -10 -11 5 -6 11 5 17 18
17 36 0 16 -2 29 -5 29 -3 0 -5 -10 -5 -23z"/>
<path d="M2265 2670 c28 -12 47 -12 40 0 -3 6 -18 10 -33 9 -24 0 -25 -1 -7
-9z"/>
<path d="M2310 2652 c-8 -9 -13 -16 -11 -15 2 2 9 -1 16 -7 15 -12 55 -1 55
16 0 8 -7 14 -15 14 -8 0 -14 -5 -12 -11 1 -6 -4 -14 -12 -16 -9 -4 -11 0 -6
16 8 25 5 25 -15 3z"/>
<path d="M2240 2567 c0 -5 -7 -7 -15 -4 -8 4 -17 2 -20 -4 -4 -5 2 -12 12 -16
10 -4 39 -20 65 -35 57 -35 206 -91 219 -82 6 3 18 -1 28 -10 10 -9 22 -16 27
-14 18 4 54 -14 48 -24 -5 -7 2 -9 19 -4 14 3 29 2 32 -4 3 -5 23 -11 43 -11
20 -1 29 -3 19 -6 -27 -7 -1 -33 33 -33 15 0 44 -7 63 -15 20 -8 42 -15 49
-14 7 0 -1 7 -19 15 -21 9 -31 19 -27 28 4 10 -10 21 -43 36 -26 12 -53 23
-60 24 -7 1 -16 5 -19 9 -4 4 -16 7 -26 7 -10 0 -97 38 -193 85 -120 58 -185
85 -205 83 -17 -1 -30 -6 -30 -11z m65 -7 c3 -5 1 -10 -4 -10 -6 0 -11 5 -11
10 0 6 2 10 4 10 3 0 8 -4 11 -10z m32 -26 c-3 -3 -12 -4 -19 -1 -8 3 -5 6 6
6 11 1 17 -2 13 -5z m140 -70 c-3 -3 -12 -4 -19 -1 -8 3 -5 6 6 6 11 1 17 -2
13 -5z m88 -24 l20 -9 -20 1 c-11 0 -33 4 -50 8 l-30 8 30 0 c17 0 39 -3 50
-8z"/>
<path d="M2850 2326 c0 -2 9 -6 20 -9 11 -3 20 -1 20 4 0 5 -9 9 -20 9 -11 0
-20 -2 -20 -4z"/>
<path d="M2910 2270 c19 -13 30 -13 30 0 0 6 -10 10 -22 10 -19 0 -20 -2 -8
-10z"/>
<path d="M3050 2262 c0 -6 9 -12 20 -15 11 -3 20 -3 20 -1 0 2 -9 8 -20 14
-11 6 -20 7 -20 2z"/>
<path d="M2970 2250 c8 -5 20 -10 25 -10 6 0 3 5 -5 10 -8 5 -19 10 -25 10 -5
0 -3 -5 5 -10z"/>
<path d="M3050 2230 c0 -6 7 -10 15 -10 8 0 15 2 15 4 0 2 -7 6 -15 10 -8 3
-15 1 -15 -4z"/>
<path d="M3130 2230 c8 -5 22 -10 30 -10 13 0 13 1 0 10 -8 5 -22 10 -30 10
-13 0 -13 -1 0 -10z"/>
<path d="M9310 2075 c0 -14 90 -45 115 -39 24 6 33 19 18 27 -14 8 -133 18
-133 12z"/>
<path d="M9305 2030 c-3 -6 1 -7 9 -4 18 7 21 14 7 14 -6 0 -13 -4 -16 -10z"/>
<path d="M10090 1709 c0 -5 5 -7 10 -4 6 3 10 8 10 11 0 2 -4 4 -10 4 -5 0
-10 -5 -10 -11z"/>
<path d="M10145 1370 c-3 -5 -1 -10 4 -10 6 0 11 5 11 10 0 6 -2 10 -4 10 -3
0 -8 -4 -11 -10z"/>
<path d="M10385 1250 c-3 -5 -1 -10 4 -10 6 0 11 5 11 10 0 6 -2 10 -4 10 -3
0 -8 -4 -11 -10z"/>
<path d="M2684 1526 c11 -9 24 -16 30 -16 12 0 7 5 -24 19 -24 11 -24 11 -6
-3z"/>
<path d="M8950 1221 c0 -11 28 -24 60 -26 25 -2 24 -2 -2 8 -16 6 -28 14 -28
19 0 4 -7 8 -15 8 -8 0 -15 -4 -15 -9z"/>
<path d="M8700 1192 c0 -9 90 -42 115 -42 14 0 15 3 5 15 -7 8 -27 15 -46 15
-18 0 -36 5 -39 10 -7 12 -35 14 -35 2z"/>
<path d="M8865 1103 c18 -18 134 -55 150 -49 9 3 14 2 11 -2 -3 -5 34 -22 82
-38 83 -28 87 -31 90 -62 l3 -32 39 20 c50 25 59 40 25 40 -15 0 -66 19 -114
41 -47 23 -124 50 -171 60 -47 11 -94 22 -105 25 -13 4 -16 3 -10 -3z"/>
<path d="M7040 570 c0 -5 5 -10 11 -10 5 0 7 5 4 10 -3 6 -8 10 -11 10 -2 0
-4 -4 -4 -10z"/>
<path d="M9075 430 c-3 -5 -1 -10 4 -10 6 0 11 5 11 10 0 6 -2 10 -4 10 -3 0
-8 -4 -11 -10z"/>
<path d="M8035 7669 c64 -15 257 -39 267 -33 15 9 179 6 191 -4 7 -5 57 -9
112 -10 79 0 109 -5 145 -21 25 -11 55 -21 66 -21 12 0 27 -7 34 -15 17 -20
55 -29 290 -70 113 -20 293 -53 400 -74 107 -22 251 -49 320 -61 221 -38 522
-100 620 -126 218 -59 319 -81 460 -99 58 -7 137 -18 175 -25 39 -6 84 -13
100 -15 28 -3 132 -23 235 -45 25 -5 48 -9 53 -10 4 0 7 72 7 160 0 89 -4 160
-9 160 -28 0 -339 62 -353 70 -10 5 -27 10 -39 10 -24 0 -67 43 -75 78 -4 12
-11 22 -17 22 -6 0 -8 24 -3 70 l6 70 -239 0 -238 0 -6 -37 c-3 -21 -13 -55
-22 -77 -16 -38 -17 -38 -58 -31 -23 3 -82 13 -132 20 -49 8 -242 39 -427 70
l-337 55 -783 -1 c-511 -1 -769 -4 -743 -10z"/>
<path d="M9415 7250 c4 -6 11 -8 16 -5 14 9 11 15 -7 15 -8 0 -12 -5 -9 -10z"/>
<path d="M9450 7240 c0 -5 9 -10 20 -10 11 0 20 5 20 10 0 6 -9 10 -20 10 -11
0 -20 -4 -20 -10z"/>
<path d="M7587 7233 c-10 -3 -23 -16 -28 -30 -8 -21 -6 -30 12 -50 24 -25 67
-31 87 -11 19 19 14 47 -13 73 -25 26 -27 26 -58 18z"/>
<path d="M9632 7181 c2 -7 7 -12 11 -12 12 1 9 15 -3 20 -7 2 -11 -2 -8 -8z"/>
<path d="M10853 7032 c-18 -9 -33 -24 -33 -32 0 -16 47 -43 61 -34 5 3 6 -2 3
-10 -5 -12 1 -14 31 -9 26 4 40 2 46 -8 7 -11 9 -11 9 3 0 9 -3 18 -7 21 -5 2
-2 2 5 0 8 -1 20 -3 28 -3 9 0 13 -4 10 -9 -3 -4 3 -16 14 -26 19 -17 20 -17
20 -1 0 9 5 14 10 11 6 -3 10 -17 10 -31 0 -28 -1 -28 39 -8 17 8 29 19 26 24
-3 5 3 14 14 19 23 13 61 15 61 3 0 -7 56 -36 75 -38 6 -1 15 -2 20 -3 6 -1 3
-6 -5 -12 -11 -8 -7 -9 18 -4 28 6 32 4 32 -14 0 -20 17 -28 65 -30 11 0 39
-4 63 -7 l42 -6 0 60 0 61 -35 7 c-19 3 -48 4 -65 2 -16 -3 -31 -1 -32 3 -2 4
-25 10 -53 13 -120 13 -151 18 -168 28 -13 7 -23 6 -30 -1 -7 -7 -21 -4 -46 8
-24 12 -46 15 -66 10 -16 -3 -54 -7 -84 -8 -49 -1 -53 1 -48 19 3 11 4 20 4
19 -1 0 -17 -8 -34 -17z m226 -36 c-2 -2 -17 -6 -34 -10 -22 -5 -26 -4 -15 4
14 9 59 15 49 6z m131 -26 c8 -5 11 -10 5 -10 -5 0 -17 5 -25 10 -8 5 -10 10
-5 10 6 0 17 -5 25 -10z"/>
<path d="M10816 6944 c-3 -8 -1 -24 4 -35 6 -11 8 -25 4 -31 -5 -8 0 -9 17 -5
13 4 27 7 32 7 4 0 7 6 7 14 0 8 8 16 18 19 12 3 9 7 -15 17 -18 6 -33 16 -33
21 0 15 -28 10 -34 -7z"/>
<path d="M7539 6898 c-37 -41 -37 -63 2 -84 36 -18 134 -31 142 -18 9 15 -40
112 -62 123 -32 18 -50 13 -82 -21z"/>
<path d="M11445 6804 c22 -16 35 -18 35 -5 0 5 -12 11 -27 14 -26 5 -26 4 -8
-9z"/>
<path d="M10240 6660 c0 -5 5 -10 10 -10 6 0 10 5 10 10 0 6 -4 10 -10 10 -5
0 -10 -4 -10 -10z"/>
<path d="M7466 6647 c-24 -18 -12 -65 21 -78 40 -15 87 2 91 33 6 47 -69 77
-112 45z"/>
<path d="M10973 6396 c14 -14 21 -16 30 -7 8 8 8 11 0 11 -6 0 -20 3 -30 7
-17 7 -17 6 0 -11z"/>
<path d="M8044 6386 c-7 -20 2 -46 16 -46 13 0 13 47 0 55 -6 3 -13 -1 -16 -9z"/>
<path d="M10224 6393 c10 -11 37 -12 30 -2 -3 5 -12 9 -21 9 -9 0 -13 -3 -9
-7z"/>
<path d="M7486 6381 c-8 -12 31 -44 44 -36 5 3 8 11 5 16 -10 15 -43 30 -49
20z"/>
<path d="M11025 6330 c-3 -5 -1 -10 4 -10 6 0 11 5 11 10 0 6 -2 10 -4 10 -3
0 -8 -4 -11 -10z"/>
<path d="M7313 6268 c-20 -22 -27 -39 -24 -65 2 -22 60 -45 93 -38 52 12 68
88 24 117 -23 16 -73 8 -93 -14z"/>
<path d="M11400 6230 c0 -5 7 -10 16 -10 8 0 12 5 9 10 -3 6 -10 10 -16 10 -5
0 -9 -4 -9 -10z"/>
<path d="M11168 5653 c6 -2 18 -2 25 0 6 3 1 5 -13 5 -14 0 -19 -2 -12 -5z"/>
<path d="M11190 5525 c0 -8 7 -15 15 -15 8 0 15 4 15 9 0 5 -7 11 -15 15 -9 3
-15 0 -15 -9z"/>
<path d="M11090 5460 c0 -5 5 -10 10 -10 6 0 10 5 10 10 0 6 -4 10 -10 10 -5
0 -10 -4 -10 -10z"/>
<path d="M6118 4563 c7 -3 16 -2 19 1 4 3 -2 6 -13 5 -11 0 -14 -3 -6 -6z"/>
<path d="M5662 4333 c-12 -2 -26 -12 -31 -22 -8 -14 -33 -193 -28 -198 1 0 20
14 42 32 39 34 39 34 42 114 1 45 2 80 0 80 -1 -1 -12 -4 -25 -6z"/>
<path d="M5566 3589 c-9 -28 -12 -79 -5 -79 9 0 23 79 15 87 -3 3 -8 0 -10 -8z"/>
<path d="M10770 3234 c-25 -7 -65 -13 -90 -15 -25 -1 -35 -4 -22 -6 12 -2 22
-8 22 -13 0 -15 30 -19 58 -8 15 6 41 13 57 15 17 2 43 8 59 13 16 6 45 10 65
10 20 0 43 5 51 10 23 15 -146 10 -200 -6z"/>
<path d="M10426 3211 c-4 -7 -5 -15 -2 -18 9 -9 19 4 14 18 -4 11 -6 11 -12 0z"/>
<path d="M10713 2988 c-4 -7 -25 -22 -45 -32 -21 -11 -38 -22 -38 -25 0 -11
-56 -68 -78 -80 -12 -6 -22 -18 -22 -26 0 -8 -9 -15 -19 -15 -11 0 -23 -5 -26
-11 -4 -5 -19 -15 -33 -22 l-27 -11 28 -4 c26 -3 53 -33 40 -46 -3 -3 -3 -6 2
-6 11 0 34 30 51 68 8 17 19 32 26 32 6 0 30 17 53 38 72 65 119 104 142 119
13 9 20 19 17 24 -8 14 -62 11 -71 -3z"/>
<path d="M10536 2915 c-9 -14 -24 -25 -34 -25 -9 0 -24 -4 -31 -9 -12 -8 -10
-12 11 -22 24 -10 31 -9 56 12 16 13 38 29 48 36 17 10 17 13 4 22 -23 16 -36
13 -54 -14z"/>
<path d="M10361 2624 c0 -11 3 -14 6 -6 3 7 2 16 -1 19 -3 4 -6 -2 -5 -13z"/>
</g>
</svg>
